# 3ds Max Wavefront OBJ Exporter v0.97b - (c)2007 guruware
# File Created: 06.08.2018 19:51:03

mtllib tisch1.mtl

#
# object Box001
#

v  -18.5889 15.0884 -19.4583
v  23.2873 15.0884 -19.4583
v  23.2873 15.0884 -16.5298
v  -18.5889 15.0884 -16.5298
v  23.2873 16.0368 -16.5298
v  23.2873 16.0368 -19.4583
v  -18.5889 16.0368 -19.4583
v  -18.5889 16.0368 -16.5298
# 8 vertices

vn -0.5774 -0.5774 -0.5774
vn 0.5774 -0.5774 -0.5774
vn 0.5774 -0.5774 0.5774
vn -0.5774 -0.5774 0.5774
vn 0.5774 0.5774 0.5774
vn 0.5774 0.5774 -0.5774
vn -0.5774 0.5774 -0.5774
vn -0.5774 0.5774 0.5774
# 8 vertex normals

vt 1.0000 1.0000 0.0000
vt 0.0000 1.0000 0.0000
vt 0.0000 0.0000 0.0000
vt 1.0000 0.0000 0.0000
# 4 texture coords

o Box001
g Box001
usemtl Material__26
s 2
f 1/1/1 2/2/2 3/3/3 4/4/4 
s 4
f 5/4/5 6/1/6 7/2/7 8/3/8 
s 8
f 3/4/3 5/1/5 8/2/8 4/3/4 
s 16
f 2/4/2 6/1/6 5/2/5 3/3/3 
s 32
f 1/4/1 7/1/7 6/2/6 2/3/2 
s 64
f 4/4/4 8/1/8 7/2/7 1/3/1 
# 6 polygons

#
# object Box002
#

v  -19.1862 15.0884 -16.0119
v  23.8846 15.0884 -16.0119
v  23.8846 15.0884 -13.8860
v  -19.1862 15.0884 -13.8860
v  23.8846 16.0332 -13.8860
v  23.8846 16.0332 -16.0119
v  -19.1862 16.0332 -16.0119
v  -19.1862 16.0332 -13.8860
# 8 vertices

vn -0.5774 -0.5774 -0.5774
vn 0.5774 -0.5774 -0.5774
vn 0.5774 -0.5774 0.5774
vn -0.5774 -0.5774 0.5774
vn 0.5774 0.5774 0.5774
vn 0.5774 0.5774 -0.5774
vn -0.5774 0.5774 -0.5774
vn -0.5774 0.5774 0.5774
# 8 vertex normals

vt 1.0000 1.0000 0.0000
vt 0.0000 1.0000 0.0000
vt 0.0000 0.0000 0.0000
vt 1.0000 0.0000 0.0000
# 4 texture coords

o Box002
g Box002
usemtl Material__26
s 2
f 9/5/9 10/6/10 11/7/11 12/8/12 
s 4
f 13/8/13 14/5/14 15/6/15 16/7/16 
s 8
f 11/8/11 13/5/13 16/6/16 12/7/12 
s 16
f 10/8/10 14/5/14 13/6/13 11/7/11 
s 32
f 9/8/9 15/5/15 14/6/14 10/7/10 
s 64
f 12/8/12 16/5/16 15/6/15 9/7/9 
# 6 polygons

#
# object Box003
#

v  -17.8083 15.0884 -13.2660
v  22.5067 15.0884 -13.2660
v  22.5067 15.0884 -9.5652
v  -17.8083 15.0884 -9.5652
v  22.5067 16.0368 -9.5652
v  22.5067 16.0368 -13.2660
v  -17.8083 16.0368 -13.2660
v  -17.8083 16.0368 -9.5652
# 8 vertices

vn -0.5774 -0.5774 -0.5774
vn 0.5774 -0.5774 -0.5774
vn 0.5774 -0.5774 0.5774
vn -0.5774 -0.5774 0.5774
vn 0.5774 0.5774 0.5774
vn 0.5774 0.5774 -0.5774
vn -0.5774 0.5774 -0.5774
vn -0.5774 0.5774 0.5774
# 8 vertex normals

vt 1.0000 1.0000 0.0000
vt 0.0000 1.0000 0.0000
vt 0.0000 0.0000 0.0000
vt 1.0000 0.0000 0.0000
# 4 texture coords

o Box003
g Box003
usemtl Material__26
s 2
f 17/9/17 18/10/18 19/11/19 20/12/20 
s 4
f 21/12/21 22/9/22 23/10/23 24/11/24 
s 8
f 19/12/19 21/9/21 24/10/24 20/11/20 
s 16
f 18/12/18 22/9/22 21/10/21 19/11/19 
s 32
f 17/12/17 23/9/23 22/10/22 18/11/18 
s 64
f 20/12/20 24/9/24 23/10/23 17/11/17 
# 6 polygons

#
# object Box005
#

v  -17.6114 15.0884 -6.3661
v  22.3098 15.0884 -6.3661
v  22.3098 15.0884 -3.4375
v  -17.6114 15.0884 -3.4375
v  22.3098 16.0368 -3.4375
v  22.3098 16.0368 -6.3661
v  -17.6114 16.0368 -6.3661
v  -17.6114 16.0368 -3.4375
# 8 vertices

vn -0.5774 -0.5774 -0.5774
vn 0.5774 -0.5774 -0.5774
vn 0.5774 -0.5774 0.5774
vn -0.5774 -0.5774 0.5774
vn 0.5774 0.5774 0.5774
vn 0.5774 0.5774 -0.5774
vn -0.5774 0.5774 -0.5774
vn -0.5774 0.5774 0.5774
# 8 vertex normals

vt 1.0000 1.0000 0.0000
vt 0.0000 1.0000 0.0000
vt 0.0000 0.0000 0.0000
vt 1.0000 0.0000 0.0000
# 4 texture coords

o Box005
g Box005
usemtl Material__26
s 2
f 25/13/25 26/14/26 27/15/27 28/16/28 
s 4
f 29/16/29 30/13/30 31/14/31 32/15/32 
s 8
f 27/16/27 29/13/29 32/14/32 28/15/28 
s 16
f 26/16/26 30/13/30 29/14/29 27/15/27 
s 32
f 25/16/25 31/13/31 30/14/30 26/15/26 
s 64
f 28/16/28 32/13/32 31/14/31 25/15/25 
# 6 polygons

#
# object Box006
#

v  -19.1862 15.0884 -9.0391
v  23.8846 15.0884 -9.0391
v  23.8846 15.0884 -6.9131
v  -19.1862 15.0884 -6.9131
v  23.8846 16.0332 -6.9131
v  23.8846 16.0332 -9.0391
v  -19.1862 16.0332 -9.0391
v  -19.1862 16.0332 -6.9131
# 8 vertices

vn -0.5774 -0.5774 -0.5774
vn 0.5774 -0.5774 -0.5774
vn 0.5774 -0.5774 0.5774
vn -0.5774 -0.5774 0.5774
vn 0.5774 0.5774 0.5774
vn 0.5774 0.5774 -0.5774
vn -0.5774 0.5774 -0.5774
vn -0.5774 0.5774 0.5774
# 8 vertex normals

vt 1.0000 1.0000 0.0000
vt 0.0000 1.0000 0.0000
vt 0.0000 0.0000 0.0000
vt 1.0000 0.0000 0.0000
# 4 texture coords

o Box006
g Box006
usemtl Material__26
s 2
f 33/17/33 34/18/34 35/19/35 36/20/36 
s 4
f 37/20/37 38/17/38 39/18/39 40/19/40 
s 8
f 35/20/35 37/17/37 40/18/40 36/19/36 
s 16
f 34/20/34 38/17/38 37/18/37 35/19/35 
s 32
f 33/20/33 39/17/39 38/18/38 34/19/34 
s 64
f 36/20/36 40/17/40 39/18/39 33/19/33 
# 6 polygons

#
# object Box007
#

v  -12.7922 15.4621 -1.7456
v  -10.2871 15.4621 -1.7456
v  -10.2871 15.4621 -20.2889
v  -12.7922 15.4621 -20.2889
v  -12.7922 13.9945 -1.7456
v  -12.7922 13.9945 -20.2889
v  -10.2871 13.9945 -20.2889
v  -10.2871 13.9945 -1.7456
# 8 vertices

vn -0.5774 0.5774 0.5774
vn 0.5774 0.5774 0.5774
vn 0.5774 0.5774 -0.5774
vn -0.5774 0.5774 -0.5774
vn -0.5774 -0.5774 0.5774
vn -0.5774 -0.5774 -0.5774
vn 0.5774 -0.5774 -0.5774
vn 0.5774 -0.5774 0.5774
# 8 vertex normals

vt 0.0000 0.0000 0.0000
vt 1.0000 0.0000 0.0000
vt 1.0000 1.0000 0.0000
vt 0.0000 1.0000 0.0000
# 4 texture coords

o Box007
g Box007
usemtl Material__26
s 2
f 41/21/41 42/22/42 43/23/43 44/24/44 
s 4
f 45/22/45 46/23/46 47/24/47 48/21/48 
s 8
f 45/24/45 48/23/48 42/22/42 41/21/41 
s 16
f 47/23/47 43/22/43 42/21/42 48/24/48 
s 32
f 47/24/47 46/23/46 44/22/44 43/21/43 
s 64
f 46/24/46 45/23/45 41/22/41 44/21/44 
# 6 polygons

#
# object Box008
#

v  13.5379 15.4849 -1.7736
v  15.4277 15.4849 -1.7736
v  15.4277 15.4849 -21.0650
v  13.5379 15.4849 -21.0650
v  13.5379 14.0172 -1.7736
v  13.5379 14.0172 -21.0650
v  15.4277 14.0172 -21.0650
v  15.4277 14.0172 -1.7736
# 8 vertices

vn -0.5774 0.5774 0.5774
vn 0.5774 0.5774 0.5774
vn 0.5774 0.5774 -0.5774
vn -0.5774 0.5774 -0.5774
vn -0.5774 -0.5774 0.5774
vn -0.5774 -0.5774 -0.5774
vn 0.5774 -0.5774 -0.5774
vn 0.5774 -0.5774 0.5774
# 8 vertex normals

vt 0.0000 0.0000 0.0000
vt 1.0000 0.0000 0.0000
vt 1.0000 1.0000 0.0000
vt 0.0000 1.0000 0.0000
# 4 texture coords

o Box008
g Box008
usemtl Material__26
s 2
f 49/25/49 50/26/50 51/27/51 52/28/52 
s 4
f 53/26/53 54/27/54 55/28/55 56/25/56 
s 8
f 53/28/53 56/27/56 50/26/50 49/25/49 
s 16
f 55/27/55 51/26/51 50/25/50 56/28/56 
s 32
f 55/28/55 54/27/54 52/26/52 51/25/51 
s 64
f 54/28/54 53/27/53 49/26/49 52/25/52 
# 6 polygons

#
# object Box009
#

v  13.8589 6.7482 -17.7057
v  15.1983 6.7482 -17.7057
v  15.1983 5.8665 -17.1119
v  13.8589 5.8665 -17.1119
v  15.1983 14.1798 -4.7685
v  15.1983 15.0615 -5.3623
v  13.8589 15.0615 -5.3623
v  13.8589 14.1798 -4.7685
# 8 vertices

vn -0.5774 0.1564 -0.8014
vn 0.5774 0.1564 -0.8014
vn 0.5774 -0.8014 -0.1564
vn -0.5774 -0.8014 -0.1564
vn 0.5774 -0.1564 0.8014
vn 0.5774 0.8014 0.1564
vn -0.5774 0.8014 0.1564
vn -0.5774 -0.1564 0.8014
# 8 vertex normals

vt 1.0000 1.0000 0.0000
vt 0.0000 1.0000 0.0000
vt 0.0000 0.0000 0.0000
vt 1.0000 0.0000 0.0000
# 4 texture coords

o Box009
g Box009
usemtl Material__26
s 2
f 57/29/57 58/30/58 59/31/59 60/32/60 
s 4
f 61/32/61 62/29/62 63/30/63 64/31/64 
s 8
f 59/32/59 61/29/61 64/30/64 60/31/60 
s 16
f 58/32/58 62/29/62 61/30/61 59/31/59 
s 32
f 57/32/57 63/29/63 62/30/62 58/31/58 
s 64
f 60/32/60 64/29/64 63/30/63 57/31/57 
# 6 polygons

#
# object Box010
#

v  13.8589 5.5899 -5.6329
v  15.1983 5.5899 -5.6329
v  15.1983 6.4647 -5.0290
v  13.8589 6.4647 -5.0290
v  15.1983 14.9192 -17.2761
v  15.1983 14.0444 -17.8800
v  13.8589 14.0444 -17.8800
v  13.8589 14.9192 -17.2761
# 8 vertices

vn -0.5774 -0.8031 0.1471
vn 0.5774 -0.8031 0.1471
vn 0.5774 0.1471 0.8031
vn -0.5774 0.1471 0.8031
vn 0.5774 0.8031 -0.1471
vn 0.5774 -0.1471 -0.8031
vn -0.5774 -0.1471 -0.8031
vn -0.5774 0.8031 -0.1471
# 8 vertex normals

vt 1.0000 1.0000 0.0000
vt 0.0000 1.0000 0.0000
vt 0.0000 0.0000 0.0000
vt 1.0000 0.0000 0.0000
# 4 texture coords

o Box010
g Box010
usemtl Material__26
s 2
f 65/33/65 66/34/66 67/35/67 68/36/68 
s 4
f 69/36/69 70/33/70 71/34/71 72/35/72 
s 8
f 67/36/67 69/33/69 72/34/72 68/35/68 
s 16
f 66/36/66 70/33/70 69/34/69 67/35/67 
s 32
f 65/36/65 71/33/71 70/34/70 66/35/66 
s 64
f 68/36/68 72/33/72 71/34/71 65/35/65 
# 6 polygons

#
# object Box011
#

v  13.1217 5.7007 -19.1410
v  15.8207 5.7007 -19.1410
v  15.8207 5.7007 -4.2880
v  13.1217 5.7007 -4.2880
v  15.8207 6.7671 -4.2880
v  15.8207 6.7671 -19.1410
v  13.1217 6.7671 -19.1410
v  13.1217 6.7671 -4.2880
# 8 vertices

vn -0.5774 -0.5774 -0.5774
vn 0.5774 -0.5774 -0.5774
vn 0.5774 -0.5774 0.5774
vn -0.5774 -0.5774 0.5774
vn 0.5774 0.5774 0.5774
vn 0.5774 0.5774 -0.5774
vn -0.5774 0.5774 -0.5774
vn -0.5774 0.5774 0.5774
# 8 vertex normals

vt 1.0000 1.0000 0.0000
vt 0.0000 1.0000 0.0000
vt 0.0000 0.0000 0.0000
vt 1.0000 0.0000 0.0000
# 4 texture coords

o Box011
g Box011
usemtl Material__26
s 2
f 73/37/73 74/38/74 75/39/75 76/40/76 
s 4
f 77/40/77 78/37/78 79/38/79 80/39/80 
s 8
f 75/40/75 77/37/77 80/38/80 76/39/76 
s 16
f 74/40/74 78/37/78 77/38/77 75/39/75 
s 32
f 73/40/73 79/37/79 78/38/78 74/39/74 
s 64
f 76/40/76 80/37/80 79/38/79 73/39/73 
# 6 polygons

#
# object Box012
#

v  -12.0090 6.7482 -17.7057
v  -10.6696 6.7482 -17.7057
v  -10.6696 5.8665 -17.1119
v  -12.0090 5.8665 -17.1119
v  -10.6696 14.1798 -4.7685
v  -10.6696 15.0615 -5.3623
v  -12.0090 15.0615 -5.3623
v  -12.0090 14.1798 -4.7685
# 8 vertices

vn -0.5774 0.1564 -0.8014
vn 0.5774 0.1564 -0.8014
vn 0.5774 -0.8014 -0.1564
vn -0.5774 -0.8014 -0.1564
vn 0.5774 -0.1564 0.8014
vn 0.5774 0.8014 0.1564
vn -0.5774 0.8014 0.1564
vn -0.5774 -0.1564 0.8014
# 8 vertex normals

vt 1.0000 1.0000 0.0000
vt 0.0000 1.0000 0.0000
vt 0.0000 0.0000 0.0000
vt 1.0000 0.0000 0.0000
# 4 texture coords

o Box012
g Box012
usemtl Material__26
s 2
f 81/41/81 82/42/82 83/43/83 84/44/84 
s 4
f 85/44/85 86/41/86 87/42/87 88/43/88 
s 8
f 83/44/83 85/41/85 88/42/88 84/43/84 
s 16
f 82/44/82 86/41/86 85/42/85 83/43/83 
s 32
f 81/44/81 87/41/87 86/42/86 82/43/82 
s 64
f 84/44/84 88/41/88 87/42/87 81/43/81 
# 6 polygons

#
# object Box013
#

v  -12.0090 5.5899 -5.6329
v  -10.6696 5.5899 -5.6329
v  -10.6696 6.4647 -5.0290
v  -12.0090 6.4647 -5.0290
v  -10.6696 14.9192 -17.2761
v  -10.6696 14.0444 -17.8800
v  -12.0090 14.0444 -17.8800
v  -12.0090 14.9192 -17.2761
# 8 vertices

vn -0.5774 -0.8031 0.1471
vn 0.5774 -0.8031 0.1471
vn 0.5774 0.1471 0.8031
vn -0.5774 0.1471 0.8031
vn 0.5774 0.8031 -0.1471
vn 0.5774 -0.1471 -0.8031
vn -0.5774 -0.1471 -0.8031
vn -0.5774 0.8031 -0.1471
# 8 vertex normals

vt 1.0000 1.0000 0.0000
vt 0.0000 1.0000 0.0000
vt 0.0000 0.0000 0.0000
vt 1.0000 0.0000 0.0000
# 4 texture coords

o Box013
g Box013
usemtl Material__26
s 2
f 89/45/89 90/46/90 91/47/91 92/48/92 
s 4
f 93/48/93 94/45/94 95/46/95 96/47/96 
s 8
f 91/48/91 93/45/93 96/46/96 92/47/92 
s 16
f 90/48/90 94/45/94 93/46/93 91/47/91 
s 32
f 89/48/89 95/45/95 94/46/94 90/47/90 
s 64
f 92/48/92 96/45/96 95/46/95 89/47/89 
# 6 polygons

#
# object Box014
#

v  -12.7462 5.7007 -19.1410
v  -10.0472 5.7007 -19.1410
v  -10.0472 5.7007 -4.2880
v  -12.7462 5.7007 -4.2880
v  -10.0472 6.7671 -4.2880
v  -10.0472 6.7671 -19.1410
v  -12.7462 6.7671 -19.1410
v  -12.7462 6.7671 -4.2880
# 8 vertices

vn -0.5774 -0.5774 -0.5774
vn 0.5774 -0.5774 -0.5774
vn 0.5774 -0.5774 0.5774
vn -0.5774 -0.5774 0.5774
vn 0.5774 0.5774 0.5774
vn 0.5774 0.5774 -0.5774
vn -0.5774 0.5774 -0.5774
vn -0.5774 0.5774 0.5774
# 8 vertex normals

vt 1.0000 1.0000 0.0000
vt 0.0000 1.0000 0.0000
vt 0.0000 0.0000 0.0000
vt 1.0000 0.0000 0.0000
# 4 texture coords

o Box014
g Box014
usemtl Material__26
s 2
f 97/49/97 98/50/98 99/51/99 100/52/100 
s 4
f 101/52/101 102/49/102 103/50/103 104/51/104 
s 8
f 99/52/99 101/49/101 104/50/104 100/51/100 
s 16
f 98/52/98 102/49/102 101/50/101 99/51/99 
s 32
f 97/52/97 103/49/103 102/50/102 98/51/98 
s 64
f 100/52/100 104/49/104 103/50/103 97/51/97 
# 6 polygons

