# 3ds Max Wavefront OBJ Exporter v0.97b - (c)2007 guruware
# File Created: 14.11.2016 09:58:24

#
# object Arc002
#

v  -364.2154 85.4409 644.4250
v  -367.4672 89.2326 644.4250
v  -349.6016 60.0593 644.4250
v  0.0002 60.1150 644.4249
v  359.3755 60.0593 644.4247
v  377.5240 89.2326 644.4247
v  373.7150 85.4409 644.4247
v  361.5063 73.5381 644.4247
v  339.7246 62.4447 644.4247
v  307.1970 61.0810 644.4247
v  262.7504 78.3676 644.4247
v  205.2117 123.2248 644.4248
v  133.4079 204.5730 644.4248
v  70.0603 292.4880 644.4248
v  31.9438 351.0980 644.4248
v  8.9660 380.4029 644.4248
v  -8.9656 380.4029 644.4248
v  -31.9434 351.0979 644.4248
v  -70.0599 292.4879 644.4248
v  -133.4075 204.5731 644.4249
v  -204.6542 123.2248 644.4249
v  -260.7563 78.3676 644.4249
v  -303.2386 61.0810 644.4249
v  -333.6259 62.4447 644.4250
v  -353.4432 73.5381 644.4250
v  -364.2156 112.7805 -84.6794
v  -367.4675 116.5721 -84.6794
v  -367.4675 116.5721 -61.7377
v  -364.2156 112.7805 -61.7378
v  -367.4675 89.2324 -84.6794
v  -349.6018 60.0592 -84.6794
v  -349.6018 60.0592 -61.7378
v  -367.4675 89.2324 -61.7377
v  -353.4435 100.8777 -84.6794
v  -353.4435 100.8777 -61.7378
v  359.3753 60.0592 -84.6796
v  377.5237 89.2324 -84.6796
v  377.5237 89.2324 -61.7380
v  359.3753 60.0592 -61.7380
v  377.5237 116.5722 -84.6796
v  373.7148 112.7805 -84.6796
v  373.7148 112.7805 -61.7380
v  377.5237 116.5722 -61.7380
v  361.5061 100.8777 -84.6796
v  361.5061 100.8777 -61.7380
v  -333.6262 89.7843 -84.6794
v  -333.6262 89.7843 -61.7378
v  339.7244 89.7843 -84.6796
v  339.7244 89.7843 -61.7380
v  31.9435 378.4376 -84.6796
v  8.9657 407.7425 -84.6796
v  8.9657 407.7425 -61.7379
v  31.9435 378.4376 -61.7379
v  -8.9658 407.7425 -84.6796
v  -8.9658 407.7425 -61.7379
v  -31.9436 378.4375 -84.6795
v  -31.9436 378.4375 -61.7379
v  70.0601 319.8276 -84.6796
v  70.0601 319.8276 -61.7379
v  -70.0601 319.8275 -84.6795
v  -70.0601 319.8275 -61.7379
v  133.4077 231.9126 -84.6796
v  133.4077 231.9126 -61.7379
v  -133.4077 231.9127 -84.6795
v  -133.4077 231.9127 -61.7379
v  -204.6544 150.5644 -84.6795
v  -204.6544 150.5644 -61.7378
v  205.2115 150.5644 -84.6796
v  205.2115 150.5644 -61.7380
v  -260.7565 105.7072 -84.6795
v  -260.7565 105.7072 -61.7378
v  262.7501 105.7071 -84.6796
v  262.7501 105.7071 -61.7380
v  -303.2388 88.4206 -84.6795
v  -303.2388 88.4206 -61.7378
v  307.1968 88.4206 -84.6796
v  307.1968 88.4206 -61.7380
v  -0.0000 60.1149 -84.6795
v  0.0000 60.1149 -61.7379
v  -364.2155 85.4408 354.3645
v  -367.4673 89.2325 354.3646
v  -367.4673 89.2325 626.6301
v  -364.2154 85.4409 626.6301
v  -349.6017 60.0593 354.3645
v  -349.6016 60.0593 626.6301
v  -353.4433 73.5381 354.3645
v  -353.4432 73.5381 626.6301
v  359.3755 60.0593 354.3643
v  377.5239 89.2325 354.3643
v  377.5239 89.2326 626.6299
v  359.3755 60.0593 626.6299
v  373.7149 85.4408 354.3643
v  373.7150 85.4409 626.6299
v  361.5062 73.5381 354.3643
v  361.5063 73.5381 626.6299
v  -333.6260 62.4446 354.3645
v  -333.6259 62.4447 626.6301
v  339.7245 62.4446 354.3643
v  339.7246 62.4447 626.6299
v  31.9437 351.0979 354.3644
v  8.9659 380.4028 354.3644
v  8.9660 380.4029 626.6299
v  31.9438 351.0980 626.6299
v  -8.9657 380.4028 354.3644
v  -8.9656 380.4029 626.6299
v  -31.9435 351.0978 354.3644
v  -31.9434 351.0979 626.6299
v  70.0602 292.4879 354.3644
v  70.0603 292.4880 626.6299
v  -70.0599 292.4879 354.3644
v  -70.0599 292.4879 626.6299
v  133.4079 204.5730 354.3643
v  133.4079 204.5730 626.6299
v  -133.4075 204.5731 354.3644
v  -133.4075 204.5731 626.6300
v  -204.6543 123.2248 354.3645
v  -204.6542 123.2248 626.6301
v  205.2116 123.2247 354.3643
v  205.2117 123.2248 626.6299
v  -260.7564 78.3675 354.3645
v  -260.7563 78.3676 626.6301
v  262.7503 78.3675 354.3643
v  262.7503 78.3675 626.6299
v  -303.2386 61.0810 354.3645
v  -303.2386 61.0810 626.6301
v  307.1969 61.0810 354.3643
v  307.1970 61.0810 626.6299
v  0.0001 60.1150 354.3644
v  0.0002 60.1150 626.6300
v  -133.4077 204.5730 -84.6795
v  -70.0601 292.4878 -84.6795
v  70.0601 292.4879 -84.6796
v  133.4077 204.5729 -84.6796
v  205.2115 123.2246 -84.6796
v  -204.6544 123.2246 -84.6795
v  262.7501 78.3674 -84.6796
v  -260.7565 78.3674 -84.6795
v  307.1968 61.0809 -84.6796
v  -303.2388 61.0809 -84.6794
v  -31.9436 351.0977 -84.6795
v  31.9435 351.0978 -84.6796
v  -8.9658 380.4027 -84.6795
v  8.9657 380.4027 -84.6796
v  -364.2156 85.4407 -61.7377
v  -353.4435 73.5380 -61.7378
v  373.7148 85.4407 -61.7380
v  361.5061 73.5380 -61.7380
v  -333.6262 62.4445 -61.7378
v  339.7244 62.4445 -61.7380
v  8.9657 380.4027 -61.7379
v  31.9435 351.0978 -61.7379
v  -8.9658 380.4027 -61.7379
v  -31.9436 351.0977 -61.7379
v  70.0601 292.4879 -61.7379
v  -70.0601 292.4878 -61.7379
v  133.4077 204.5729 -61.7379
v  -133.4077 204.5730 -61.7379
v  -204.6544 123.2246 -61.7378
v  205.2115 123.2246 -61.7380
v  -260.7565 78.3674 -61.7378
v  262.7501 78.3674 -61.7380
v  -303.2388 61.0809 -61.7378
v  307.1968 61.0809 -61.7380
v  -367.4673 116.5723 626.6301
v  -367.4672 116.5723 644.4250
v  -364.2154 112.7806 644.4250
v  -364.2154 112.7806 626.6301
v  -353.4432 100.8779 644.4250
v  -353.4432 100.8778 626.6301
v  373.7150 112.7806 626.6299
v  373.7150 112.7806 644.4247
v  377.5240 116.5723 644.4247
v  377.5239 116.5723 626.6299
v  361.5063 100.8779 626.6299
v  361.5063 100.8779 644.4247
v  -333.6259 89.7844 644.4249
v  -333.6259 89.7844 626.6301
v  339.7246 89.7844 626.6299
v  339.7246 89.7844 644.4247
v  8.9660 407.7426 626.6299
v  8.9660 407.7426 644.4248
v  31.9438 378.4377 644.4248
v  31.9438 378.4377 626.6299
v  -8.9656 407.7426 626.6299
v  -8.9656 407.7426 644.4248
v  -31.9434 378.4376 626.6299
v  -31.9434 378.4376 644.4248
v  70.0603 319.8278 644.4248
v  70.0603 319.8278 626.6299
v  -70.0599 319.8277 626.6299
v  -70.0599 319.8277 644.4248
v  133.4080 231.9128 644.4248
v  133.4080 231.9128 626.6299
v  -133.4074 231.9128 626.6300
v  -133.4074 231.9128 644.4249
v  -204.6542 150.5645 626.6301
v  -204.6542 150.5645 644.4249
v  205.2117 150.5645 644.4247
v  205.2117 150.5645 626.6299
v  -260.7563 105.7073 626.6301
v  -260.7563 105.7073 644.4249
v  262.7504 105.7073 644.4247
v  262.7503 105.7073 626.6299
v  -303.2386 88.4208 626.6301
v  -303.2386 88.4208 644.4249
v  307.1970 88.4208 644.4247
v  307.1970 88.4207 626.6299
v  -364.2156 85.4407 -84.6794
v  373.7148 85.4407 -84.6796
v  361.5061 73.5380 -84.6796
v  339.7244 62.4445 -84.6796
v  -333.6262 62.4445 -84.6794
v  -353.4435 73.5380 -84.6794
# 213 vertices

vn 0.0000 0.0000 1.0000
vn 0.7964 0.6047 -0.0000
vn -0.8791 -0.4766 0.0000
vn 0.7804 0.6253 -0.0000
vn 0.8759 -0.4824 -0.0000
vn -0.7472 0.6646 -0.0000
vn -0.7403 0.6723 -0.0000
vn 0.5344 0.8452 -0.0000
vn -0.4986 0.8668 -0.0000
vn 0.8215 0.5703 -0.0000
vn -0.0000 1.0000 -0.0000
vn -0.8215 0.5703 0.0000
vn 0.8666 0.4990 -0.0000
vn -0.8666 0.4990 0.0000
vn 0.8431 0.5378 -0.0000
vn -0.8431 0.5378 0.0000
vn -0.7903 0.6128 0.0000
vn 0.7879 0.6157 -0.0000
vn -0.6702 0.7421 0.0000
vn 0.6609 0.7505 -0.0000
vn -0.4176 0.9086 -0.0000
vn 0.4022 0.9156 -0.0000
vn 0.0506 0.9987 -0.0000
vn 0.0002 -1.0000 0.0000
vn -0.0002 -1.0000 0.0000
vn -0.0473 0.9989 -0.0000
vn -0.7472 0.6646 0.0000
vn -0.7403 0.6723 0.0000
vn -0.8215 0.5702 0.0000
vn -0.0000 0.0000 -1.0000
vn -0.0000 -0.0000 -1.0000
vn -0.6702 0.7421 -0.0000
vn -1.0000 0.0000 0.0000
vn -0.0000 0.0000 1.0000
vn 1.0000 -0.0000 -0.0000
vn 0.0000 -0.0000 -1.0000
# 36 vertex normals

g Arc002
s 1
f 1//1 2//1 3//1 4//1 5//1 6//1 7//1 8//1 9//1 10//1 11//1 12//1 13//1 14//1 15//1 16//1 17//1 18//1 19//1 20//1 21//1 22//1 23//1 24//1 25//1 
s off
f 26//2 27//2 28//2 29//2 
f 30//3 31//3 32//3 33//3 
f 34//4 26//4 29//4 35//4 
f 36//5 37//5 38//5 39//5 
f 40//6 41//6 42//6 43//6 
f 41//7 44//7 45//7 42//7 
f 46//8 34//8 35//8 47//8 
f 44//9 48//9 49//9 45//9 
f 50//10 51//10 52//10 53//10 
f 51//11 54//11 55//11 52//11 
f 54//12 56//12 57//12 55//12 
f 58//13 50//13 53//13 59//13 
f 56//14 60//14 61//14 57//14 
f 62//15 58//15 59//15 63//15 
f 60//16 64//16 65//16 61//16 
f 64//17 66//17 67//17 65//17 
f 68//18 62//18 63//18 69//18 
f 66//19 70//19 71//19 67//19 
f 72//20 68//20 69//20 73//20 
f 70//21 74//21 75//21 71//21 
f 76//22 72//22 73//22 77//22 
f 74//23 46//23 47//23 75//23 
f 31//24 78//24 79//24 32//24 
f 78//25 36//25 39//25 79//25 
f 48//26 76//26 77//26 49//26 
f 80//2 81//2 82//2 83//2 
f 81//3 84//3 85//3 82//3 
f 86//4 80//4 83//4 87//4 
f 88//5 89//5 90//5 91//5 
f 89//27 92//27 93//27 90//27 
f 92//28 94//28 95//28 93//28 
f 96//8 86//8 87//8 97//8 
f 94//9 98//9 99//9 95//9 
f 100//10 101//10 102//10 103//10 
f 101//11 104//11 105//11 102//11 
f 104//29 106//29 107//29 105//29 
f 108//13 100//13 103//13 109//13 
f 106//14 110//14 111//14 107//14 
f 112//15 108//15 109//15 113//15 
f 110//16 114//16 115//16 111//16 
f 114//17 116//17 117//17 115//17 
f 118//18 112//18 113//18 119//18 
f 116//19 120//19 121//19 117//19 
f 122//20 118//20 119//20 123//20 
f 120//21 124//21 125//21 121//21 
f 126//22 122//22 123//22 127//22 
f 124//23 96//23 97//23 125//23 
f 84//24 128//24 129//24 85//24 
f 128//25 88//25 91//25 129//25 
f 98//26 126//26 127//26 99//26 
s 1
f 130//30 131//30 132//30 133//30 
s 2
f 133//30 134//30 135//30 130//30 
s 1
f 134//31 136//31 137//31 135//31 
s 2
f 136//31 138//31 139//31 137//31 
f 131//30 140//30 141//30 132//30 
s 1
f 140//30 142//30 143//30 141//30 
s off
f 33//2 81//2 80//2 144//2 
f 32//3 84//3 81//3 33//3 
f 144//4 80//4 86//4 145//4 
f 38//5 89//5 88//5 39//5 
f 146//27 92//27 89//27 38//27 
f 147//28 94//28 92//28 146//28 
f 145//8 86//8 96//8 148//8 
f 149//9 98//9 94//9 147//9 
f 150//10 101//10 100//10 151//10 
f 152//11 104//11 101//11 150//11 
f 153//12 106//12 104//12 152//12 
f 151//13 100//13 108//13 154//13 
f 155//14 110//14 106//14 153//14 
f 154//15 108//15 112//15 156//15 
f 157//16 114//16 110//16 155//16 
f 158//17 116//17 114//17 157//17 
f 156//18 112//18 118//18 159//18 
f 160//32 120//32 116//32 158//32 
f 159//20 118//20 122//20 161//20 
f 162//21 124//21 120//21 160//21 
f 161//22 122//22 126//22 163//22 
f 148//23 96//23 124//23 162//23 
f 79//24 128//24 84//24 32//24 
f 39//25 88//25 128//25 79//25 
f 163//26 126//26 98//26 149//26 
f 164//2 165//2 166//2 167//2 
f 85//3 3//3 2//3 82//3 
f 167//4 166//4 168//4 169//4 
f 90//5 6//5 5//5 91//5 
f 170//27 171//27 172//27 173//27 
f 174//28 175//28 171//28 170//28 
f 169//8 168//8 176//8 177//8 
f 178//9 179//9 175//9 174//9 
f 180//10 181//10 182//10 183//10 
f 184//11 185//11 181//11 180//11 
f 186//12 187//12 185//12 184//12 
f 183//13 182//13 188//13 189//13 
f 190//14 191//14 187//14 186//14 
f 189//15 188//15 192//15 193//15 
f 194//16 195//16 191//16 190//16 
f 196//17 197//17 195//17 194//17 
f 193//18 192//18 198//18 199//18 
f 200//19 201//19 197//19 196//19 
f 199//20 198//20 202//20 203//20 
f 204//21 205//21 201//21 200//21 
f 203//22 202//22 206//22 207//22 
f 177//23 176//23 205//23 204//23 
f 129//24 4//24 3//24 85//24 
f 91//25 5//25 4//25 129//25 
f 207//26 206//26 179//26 178//26 
f 208//31 30//31 27//31 26//31 
f 30//33 33//33 28//33 27//33 
f 33//1 144//1 29//1 28//1 
f 144//1 145//1 35//1 29//1 
f 145//1 148//1 47//1 35//1 
f 148//1 162//1 75//1 47//1 
f 162//1 160//1 71//1 75//1 
f 160//1 158//1 67//1 71//1 
f 158//1 157//1 65//1 67//1 
f 157//1 155//1 61//1 65//1 
f 155//34 153//34 57//34 61//34 
f 153//1 152//1 55//1 57//1 
f 152//1 150//1 52//1 55//1 
f 150//1 151//1 53//1 52//1 
f 151//1 154//1 59//1 53//1 
f 154//1 156//1 63//1 59//1 
f 156//1 159//1 69//1 63//1 
f 159//1 161//1 73//1 69//1 
f 161//1 163//1 77//1 73//1 
f 163//1 149//1 49//1 77//1 
f 149//34 147//34 45//34 49//34 
f 147//34 146//34 42//34 45//34 
f 146//34 38//34 43//34 42//34 
f 38//35 37//35 40//35 43//35 
f 37//36 209//36 41//36 40//36 
f 209//36 210//36 44//36 41//36 
f 210//36 211//36 48//36 44//36 
f 211//31 138//31 76//31 48//31 
f 138//31 136//31 72//31 76//31 
f 136//31 134//31 68//31 72//31 
f 134//31 133//31 62//31 68//31 
f 133//31 132//31 58//31 62//31 
f 132//31 141//31 50//31 58//31 
f 141//31 143//31 51//31 50//31 
f 143//31 142//31 54//31 51//31 
f 142//31 140//31 56//31 54//31 
f 140//31 131//31 60//31 56//31 
f 131//31 130//31 64//31 60//31 
f 130//31 135//31 66//31 64//31 
f 135//31 137//31 70//31 66//31 
f 137//31 139//31 74//31 70//31 
f 139//31 212//31 46//31 74//31 
f 212//31 213//31 34//31 46//31 
f 213//31 208//31 26//31 34//31 
f 2//1 1//1 166//1 165//1 
f 1//1 25//1 168//1 166//1 
f 25//1 24//1 176//1 168//1 
f 24//1 23//1 205//1 176//1 
f 23//1 22//1 201//1 205//1 
f 22//1 21//1 197//1 201//1 
f 21//1 20//1 195//1 197//1 
f 20//1 19//1 191//1 195//1 
f 19//1 18//1 187//1 191//1 
f 18//1 17//1 185//1 187//1 
f 17//1 16//1 181//1 185//1 
f 16//1 15//1 182//1 181//1 
f 15//1 14//1 188//1 182//1 
f 14//1 13//1 192//1 188//1 
f 13//1 12//1 198//1 192//1 
f 12//1 11//1 202//1 198//1 
f 11//1 10//1 206//1 202//1 
f 10//1 9//1 179//1 206//1 
f 9//1 8//1 175//1 179//1 
f 8//1 7//1 171//1 175//1 
f 7//1 6//1 172//1 171//1 
f 6//35 90//35 173//35 172//35 
f 90//31 93//31 170//31 173//31 
f 93//31 95//31 174//31 170//31 
f 95//31 99//31 178//31 174//31 
f 99//31 127//31 207//31 178//31 
f 127//31 123//31 203//31 207//31 
f 123//31 119//31 199//31 203//31 
f 119//31 113//31 193//31 199//31 
f 113//31 109//31 189//31 193//31 
f 109//31 103//31 183//31 189//31 
f 103//31 102//31 180//31 183//31 
f 102//31 105//31 184//31 180//31 
f 105//31 107//31 186//31 184//31 
f 107//31 111//31 190//31 186//31 
f 111//31 115//31 194//31 190//31 
f 115//31 117//31 196//31 194//31 
f 117//31 121//31 200//31 196//31 
f 121//31 125//31 204//31 200//31 
f 125//31 97//31 177//31 204//31 
f 97//31 87//31 169//31 177//31 
f 87//31 83//31 167//31 169//31 
f 83//31 82//31 164//31 167//31 
f 82//33 2//33 165//33 164//33 
# 195 polygons

#
# object Box001
#

v  -144.2552 20.6985 602.7770
v  -144.2552 -47.1467 602.7769
v  -144.2552 -47.1467 622.0211
v  -144.2552 20.6985 622.0211
v  168.7587 20.6985 602.7770
v  168.7587 -47.1467 602.7769
v  168.7587 -47.1467 622.0211
v  168.7587 20.6985 622.0211
v  252.8720 64.6603 -66.0940
v  252.8720 -301.4868 -66.0941
v  -252.8720 -301.4868 -66.0941
v  -252.8720 64.6603 -66.0940
v  252.8720 64.6602 622.0211
v  252.8720 -301.4869 622.0211
v  -252.8720 64.6602 622.0211
v  113.0261 -47.1467 622.0211
v  -199.9878 20.6985 622.0211
v  -224.7443 -301.4868 213.5191
v  -95.7905 -301.4869 600.7074
v  -224.7443 -301.4868 303.3278
v  -95.7905 -185.3202 600.7074
v  -95.7905 -185.3202 622.0211
v  -95.7905 -301.4869 622.0211
v  -0.0000 -301.4869 600.7074
v  -0.0000 -185.3202 600.7074
v  -0.0000 -301.4869 622.0211
v  -0.0000 -185.3202 622.0211
v  -199.9878 20.6985 602.7770
v  -199.9878 -47.1467 622.0211
v  -199.9878 -47.1467 602.7769
v  113.0261 20.6985 622.0211
v  113.0261 20.6985 602.7770
v  113.0261 -47.1467 602.7769
v  -252.8720 -0.3972 75.0006
v  -252.8720 -108.4721 75.0006
v  -252.8720 -161.7484 213.5192
v  -252.8720 -161.7484 303.3279
v  -224.7443 -161.7484 213.5192
v  -252.8720 -301.4868 213.5191
v  -224.7443 -161.7484 303.3279
v  -252.8720 -301.4868 303.3278
v  -210.8716 5.6916 446.4130
v  -252.8720 5.6916 446.4130
v  -252.8720 -109.9942 446.4130
v  -210.8716 -109.9942 446.4130
v  -252.8720 -109.9943 522.5220
v  -210.8716 -109.9943 522.5220
v  -252.8720 5.6916 522.5220
v  -210.8716 5.6916 522.5220
v  -235.9897 -0.3971 1.9359
v  -252.8720 -0.3971 1.9359
v  -252.8720 -108.4720 1.9359
v  -235.9897 -108.4720 1.9359
v  -235.9897 -108.4721 75.0006
v  -235.9897 -0.3972 75.0006
v  -252.8720 -301.4869 622.0211
# 56 vertices

vn -1.0000 0.0000 -0.0000
vn 0.0000 0.0000 -1.0000
vn 1.0000 0.0000 -0.0000
vn 0.0000 1.0000 0.0000
vn 0.0000 -0.0000 1.0000
vn 0.0000 -1.0000 -0.0000
# 6 vertex normals

vt 19.5312 67.8451 0.0000
vt 19.5312 -0.0000 0.0000
vt 2.4937 0.0000 0.0000
vt 2.4937 67.8451 0.0000
vt 0.0000 366.1471 0.0000
vt 0.0000 0.0000 0.0000
vt 447.7518 0.0000 0.0000
vt 447.7518 366.1471 0.0000
vt 366.1471 609.2109 0.0000
vt 0.0000 609.2109 0.0000
vt 366.1471 0.0000 0.0000
vt 447.7518 609.2109 0.0000
vt 96.1620 322.1854 0.0000
vt 323.9417 254.3402 0.0000
vt 46.8201 322.1854 0.0000
vt 24.9024 247.5507 0.0000
vt 139.0695 590.3412 0.0000
vt 24.9024 327.0613 0.0000
vt -0.0000 122.3268 0.0000
vt 18.8696 122.3268 0.0000
vt 18.8697 6.1601 0.0000
vt 0.0000 6.1601 0.0000
vt 116.1667 84.8064 0.0000
vt 116.1667 -0.0000 0.0000
vt 0.0000 84.8064 0.0000
vt 22.6973 122.3268 0.0000
vt 22.6973 6.1601 0.0000
vt 3.8276 6.1601 0.0000
vt 3.8276 122.3268 0.0000
vt 3.8276 0.0000 0.0000
vt 3.8276 84.8064 0.0000
vt 22.6973 84.8064 0.0000
vt 22.6973 0.0000 0.0000
vt 19.5312 0.0000 0.0000
vt 2.4937 49.3419 0.0000
vt 19.5312 49.3419 0.0000
vt 0.0000 67.8451 0.0000
vt 17.0374 67.8451 0.0000
vt 17.0375 0.0000 0.0000
vt 0.0000 -0.0000 0.0000
vt 0.0000 49.3419 0.0000
vt 17.0375 49.3419 0.0000
vt 67.8451 49.3419 0.0000
vt 67.8451 0.0000 0.0000
vt 65.0574 124.9158 0.0000
vt 173.1323 124.9157 0.0000
vt 226.4086 247.5507 0.0000
vt 226.4087 327.0614 0.0000
vt 0.0000 28.1277 0.0000
vt 139.7384 28.1277 0.0000
vt 139.7384 0.0000 0.0000
vt 0.0000 7.9132 0.0000
vt -0.0000 147.6516 0.0000
vt 89.8087 147.6516 0.0000
vt 89.8087 7.9132 0.0000
vt 7.9132 28.1277 0.0000
vt 147.6516 28.1277 0.0000
vt 147.6516 0.0000 0.0000
vt 7.9132 0.0000 0.0000
vt -0.0000 28.1277 0.0000
vt 89.8087 28.1277 0.0000
vt 89.8087 0.0000 0.0000
vt -0.0000 0.0000 0.0000
vt 0.0000 42.0004 0.0000
vt 115.6858 42.0004 0.0000
vt 115.6858 0.0000 0.0000
vt -0.0000 42.0004 0.0000
vt 76.1091 42.0004 0.0000
vt 76.1090 0.0000 0.0000
vt 76.1091 0.0000 0.0000
vt 0.0001 115.6858 0.0000
vt 76.1092 115.6858 0.0000
vt 0.0001 0.0000 0.0000
vt 0.0001 42.0004 0.0000
vt 76.1091 42.0003 0.0000
vt 0.0000 16.8823 0.0000
vt 108.0749 16.8823 0.0000
vt 108.0749 0.0000 0.0000
vt 73.0647 16.8823 0.0000
vt 73.0647 0.0000 0.0000
vt 0.0000 108.0749 0.0000
vt 73.0647 108.0749 0.0000
vt 323.9416 322.1854 0.0000
vt 373.2835 322.1854 0.0000
vt 46.8203 254.3403 0.0000
vt 373.2835 254.3402 0.0000
vt 447.7520 0.0000 0.0000
vt 223.8756 116.1667 0.0000
vt 223.8760 0.0000 0.0000
vt 96.1621 254.3402 0.0000
vt 139.0696 0.0000 0.0000
vt 139.0692 116.1669 0.0000
vt 0.0000 327.0613 0.0000
vt 139.0695 609.2109 0.0000
vt 223.8759 590.3412 0.0000
vt 223.8759 609.2109 0.0000
vt 0.0000 247.5507 0.0000
vt 58.9686 453.7393 0.0000
vt 58.9686 521.1212 0.0000
vt 65.0574 60.2291 0.0000
vt 173.1323 60.2291 0.0000
vt 174.6544 521.1212 0.0000
vt 174.6544 453.7392 0.0000
vt 366.1471 327.0613 0.0000
vt 366.1471 247.5508 0.0000
# 105 texture coords

g Box001
s 2
f 214/1/37 215/2/37 216/3/37 217/4/37 
f 218/1/37 219/2/37 220/3/37 221/4/37 
f 222/5/38 223/6/38 224/7/38 225/8/38 
s 16
f 226/9/39 227/10/39 223/6/39 222/11/39 
s 32
f 228/12/40 226/10/40 222/6/40 225/7/40 
s 4
f 217/13/41 229/14/41 228/5/41 230/15/41 
s 8
f 231/16/42 224/6/42 232/17/42 233/18/42 
s 1
f 234/19/39 235/20/39 236/21/39 232/22/39 
s 4
f 232/23/41 237/24/41 238/6/41 234/25/41 
s 2
f 238/26/37 237/27/37 239/28/37 240/29/37 
s 8
f 240/30/42 235/31/42 234/32/42 238/33/42 
s 1
f 214/34/42 217/3/42 230/35/42 241/36/42 
s 2
f 241/37/39 230/38/39 242/39/39 243/40/39 
s 1
f 243/41/40 242/42/40 216/39/40 215/6/40 
s 4
f 214/40/41 241/41/41 243/43/41 215/44/41 
s 1
f 218/34/42 221/3/42 244/35/42 245/36/42 
s 2
f 245/37/39 244/38/39 229/39/39 246/40/39 
s 1
f 246/41/40 229/42/40 220/39/40 219/6/40 
s 4
f 218/40/41 245/41/41 246/43/41 219/44/41 
s 64
f 247/45/37 248/46/37 249/47/37 250/48/37 
s 1
f 251/6/41 249/49/41 252/50/41 231/51/41 
s 2
f 233/52/37 253/53/37 251/54/37 231/55/37 
s 1
f 254/56/38 250/57/38 253/58/38 233/59/38 
s 4
f 250/60/42 249/61/42 251/62/42 253/63/42 
s 1
f 255/63/41 256/64/41 257/65/41 258/66/41 
s 4
f 258/63/40 257/67/40 259/68/40 260/69/40 
s 1
f 260/6/38 259/64/38 261/65/38 262/66/38 
s 2
f 258/70/37 260/6/37 262/71/37 255/72/37 
s 4
f 262/73/42 261/74/42 256/75/42 255/70/42 
s 1
f 263/6/41 264/76/41 265/77/41 266/78/41 
s 4
f 266/6/40 265/76/40 248/79/40 267/80/40 
s 1
f 248/76/38 247/77/38 268/78/38 267/6/38 
s 2
f 266/80/37 267/63/37 268/81/37 263/82/37 
s 4
f 268/6/42 247/76/42 264/79/42 263/80/42 
f 228/5/41 244/83/41 221/84/41 226/8/41 
f 269/6/41 242/85/41 230/15/41 228/5/41 
f 221/84/41 220/86/41 227/87/41 226/8/41 
f 220/86/41 240/88/41 239/89/41 227/87/41 
f 229/14/41 216/90/41 240/88/41 220/86/41 
f 236/91/41 235/92/41 242/85/41 269/6/41 
f 235/92/41 240/88/41 216/90/41 242/85/41 
f 228/5/41 229/14/41 244/83/41 
f 229/14/41 217/13/41 216/90/41 
s 8
f 269/10/42 254/93/42 232/17/42 236/94/42 
f 233/18/42 232/17/42 254/93/42 
f 237/95/42 223/7/42 227/12/42 239/96/42 
f 237/95/42 232/17/42 224/6/42 223/7/42 
f 224/6/42 231/16/42 252/97/42 
s 64
f 225/6/37 256/98/37 261/99/37 228/10/37 
f 264/100/37 247/45/37 256/98/37 225/6/37 
f 224/11/37 265/101/37 264/100/37 225/6/37 
f 261/99/37 259/102/37 269/9/37 228/10/37 
f 259/102/37 257/103/37 254/104/37 269/9/37 
f 257/103/37 247/45/37 250/48/37 254/104/37 
f 252/105/37 249/47/37 265/101/37 224/11/37 
f 249/47/37 248/46/37 265/101/37 
f 247/45/37 257/103/37 256/98/37 
# 51 polygons - 6 triangles

