# 3ds Max Wavefront OBJ Exporter v0.97b - (c)2007 guruware
# File Created: 13.11.2016 19:38:31

#
# object Arc002
#

v  -322.4519 85.4409 645.5001
v  -325.3308 89.2326 645.5001
v  -309.5138 60.0593 645.5001
v  0.0002 60.1150 645.5000
v  318.1669 60.0593 645.4999
v  334.2343 89.2326 645.4999
v  330.8622 85.4409 645.4999
v  320.0534 73.5381 645.4999
v  300.7693 62.4447 645.4999
v  271.9716 61.0810 645.4999
v  232.6215 78.3676 645.4999
v  181.6806 123.2248 645.4999
v  118.1104 204.5730 645.4999
v  62.0267 292.4880 645.4999
v  28.2809 351.0980 645.4999
v  7.9379 380.4029 645.4999
v  -7.9375 380.4029 645.4999
v  -28.2805 351.0979 645.4999
v  -62.0263 292.4879 645.5000
v  -118.1100 204.5731 645.5000
v  -181.1871 123.2248 645.5001
v  -230.8561 78.3676 645.5001
v  -268.4671 61.0810 645.5001
v  -295.3700 62.4447 645.5001
v  -312.9149 73.5381 645.5001
v  -322.4521 112.7805 0.0001
v  -325.3310 116.5721 0.0001
v  -325.3310 116.5721 20.3111
v  -322.4521 112.7805 20.3111
v  -325.3310 89.2324 0.0001
v  -309.5140 60.0592 0.0001
v  -309.5140 60.0592 20.3111
v  -325.3310 89.2324 20.3111
v  -312.9151 100.8777 0.0001
v  -312.9151 100.8777 20.3111
v  318.1667 60.0592 -0.0001
v  334.2341 89.2324 -0.0001
v  334.2341 89.2324 20.3109
v  318.1667 60.0592 20.3109
v  334.2341 116.5722 -0.0001
v  330.8620 112.7805 -0.0001
v  330.8619 112.7805 20.3109
v  334.2341 116.5722 20.3109
v  320.0532 100.8777 -0.0001
v  320.0532 100.8777 20.3109
v  -295.3702 89.7843 0.0001
v  -295.3702 89.7843 20.3111
v  300.7691 89.7843 -0.0001
v  300.7691 89.7843 20.3109
v  28.2807 378.4376 -0.0000
v  7.9377 407.7425 -0.0000
v  7.9377 407.7425 20.3110
v  28.2807 378.4376 20.3110
v  -7.9377 407.7425 -0.0000
v  -7.9377 407.7425 20.3110
v  -28.2807 378.4375 -0.0000
v  -28.2807 378.4375 20.3110
v  62.0265 319.8276 -0.0001
v  62.0265 319.8276 20.3109
v  -62.0265 319.8275 -0.0000
v  -62.0265 319.8275 20.3110
v  118.1102 231.9126 -0.0001
v  118.1102 231.9126 20.3109
v  -118.1102 231.9127 -0.0000
v  -118.1102 231.9127 20.3110
v  -181.1873 150.5644 0.0000
v  -181.1873 150.5644 20.3110
v  181.6805 150.5644 -0.0001
v  181.6805 150.5644 20.3109
v  -230.8563 105.7072 0.0000
v  -230.8563 105.7072 20.3110
v  232.6213 105.7071 -0.0001
v  232.6213 105.7071 20.3109
v  -268.4673 88.4206 0.0001
v  -268.4673 88.4206 20.3110
v  271.9714 88.4206 -0.0001
v  271.9714 88.4206 20.3109
v  0.0000 60.1149 0.0000
v  0.0000 60.1149 20.3110
v  -322.4519 85.4408 388.7001
v  -325.3309 89.2325 388.7001
v  -325.3308 89.2325 629.7457
v  -322.4519 85.4409 629.7457
v  -309.5139 60.0593 388.7001
v  -309.5138 60.0593 629.7457
v  -312.9149 73.5381 388.7001
v  -312.9149 73.5381 629.7457
v  318.1669 60.0593 388.6999
v  334.2343 89.2325 388.6999
v  334.2343 89.2326 629.7455
v  318.1669 60.0593 629.7455
v  330.8621 85.4408 388.6999
v  330.8622 85.4409 629.7455
v  320.0533 73.5381 388.6999
v  320.0534 73.5381 629.7455
v  -295.3701 62.4446 388.7001
v  -295.3700 62.4447 629.7457
v  300.7693 62.4446 388.6999
v  300.7693 62.4447 629.7455
v  28.2808 351.0979 388.7000
v  7.9378 380.4028 388.7000
v  7.9378 380.4029 629.7456
v  28.2808 351.0980 629.7456
v  -7.9376 380.4028 388.7000
v  -7.9375 380.4029 629.7456
v  -28.2806 351.0978 388.7000
v  -28.2805 351.0979 629.7456
v  62.0266 292.4879 388.7000
v  62.0266 292.4880 629.7456
v  -62.0264 292.4879 388.7000
v  -62.0263 292.4879 629.7457
v  118.1103 204.5730 388.7000
v  118.1104 204.5730 629.7456
v  -118.1101 204.5731 388.7000
v  -118.1100 204.5731 629.7457
v  -181.1871 123.2248 388.7000
v  -181.1871 123.2248 629.7457
v  181.6806 123.2247 388.7000
v  181.6806 123.2248 629.7456
v  -230.8562 78.3675 388.7000
v  -230.8561 78.3676 629.7457
v  232.6214 78.3675 388.6999
v  232.6215 78.3675 629.7456
v  -268.4671 61.0810 388.7001
v  -268.4671 61.0810 629.7457
v  271.9715 61.0810 388.6999
v  271.9716 61.0810 629.7455
v  0.0001 60.1150 388.7000
v  0.0002 60.1150 629.7457
v  -118.1102 204.5730 0.0000
v  -62.0265 292.4878 -0.0000
v  62.0265 292.4879 -0.0001
v  118.1102 204.5729 -0.0001
v  181.6805 123.2246 -0.0001
v  -181.1873 123.2246 0.0000
v  232.6213 78.3674 -0.0001
v  -230.8563 78.3674 0.0000
v  271.9714 61.0809 -0.0001
v  -268.4673 61.0809 0.0001
v  -28.2807 351.0977 -0.0000
v  28.2807 351.0978 -0.0000
v  -7.9377 380.4027 -0.0000
v  7.9377 380.4027 -0.0000
v  -322.4521 85.4407 20.3111
v  -312.9151 73.5380 20.3111
v  330.8619 85.4407 20.3109
v  320.0532 73.5380 20.3109
v  -295.3702 62.4445 20.3111
v  300.7691 62.4445 20.3109
v  7.9377 380.4027 20.3110
v  28.2807 351.0978 20.3110
v  -7.9377 380.4027 20.3110
v  -28.2807 351.0977 20.3110
v  62.0265 292.4879 20.3109
v  -62.0265 292.4878 20.3110
v  118.1102 204.5729 20.3109
v  -118.1102 204.5730 20.3110
v  -181.1873 123.2246 20.3110
v  181.6805 123.2246 20.3109
v  -230.8563 78.3674 20.3110
v  232.6213 78.3674 20.3109
v  -268.4673 61.0809 20.3110
v  271.9714 61.0809 20.3109
v  -325.3308 116.5723 629.7457
v  -325.3308 116.5723 645.5001
v  -322.4519 112.7806 645.5001
v  -322.4519 112.7806 629.7457
v  -312.9149 100.8779 645.5001
v  -312.9149 100.8778 629.7457
v  330.8622 112.7806 629.7455
v  330.8622 112.7806 645.4999
v  334.2343 116.5723 645.4999
v  334.2343 116.5723 629.7455
v  320.0534 100.8779 629.7455
v  320.0534 100.8779 645.4999
v  -295.3700 89.7844 645.5001
v  -295.3700 89.7844 629.7457
v  300.7693 89.7844 629.7455
v  300.7693 89.7844 645.4999
v  7.9378 407.7426 629.7456
v  7.9379 407.7426 645.4999
v  28.2809 378.4377 645.4999
v  28.2808 378.4377 629.7456
v  -7.9375 407.7426 629.7456
v  -7.9375 407.7426 645.4999
v  -28.2805 378.4376 629.7456
v  -28.2805 378.4376 645.4999
v  62.0266 319.8278 645.4999
v  62.0266 319.8278 629.7456
v  -62.0263 319.8277 629.7456
v  -62.0263 319.8277 645.4999
v  118.1104 231.9128 645.4999
v  118.1104 231.9128 629.7456
v  -118.1100 231.9128 629.7457
v  -118.1100 231.9128 645.5000
v  -181.1871 150.5645 629.7457
v  -181.1871 150.5645 645.5000
v  181.6806 150.5645 645.4999
v  181.6806 150.5645 629.7456
v  -230.8561 105.7073 629.7457
v  -230.8561 105.7073 645.5001
v  232.6215 105.7073 645.4999
v  232.6215 105.7073 629.7456
v  -268.4671 88.4208 629.7457
v  -268.4671 88.4208 645.5001
v  271.9716 88.4208 645.4999
v  271.9716 88.4207 629.7455
v  -322.4521 85.4407 0.0001
v  330.8620 85.4407 -0.0001
v  320.0532 73.5380 -0.0001
v  300.7691 62.4445 -0.0001
v  -295.3702 62.4445 0.0001
v  -312.9151 73.5380 0.0001
# 213 vertices

vn 0.0000 0.0000 1.0000
vn 0.7964 0.6047 -0.0000
vn -0.8791 -0.4766 0.0000
vn 0.7804 0.6253 -0.0000
vn 0.8759 -0.4824 -0.0000
vn -0.7472 0.6646 -0.0000
vn -0.7403 0.6723 -0.0000
vn 0.5344 0.8452 -0.0000
vn -0.4986 0.8668 -0.0000
vn 0.8215 0.5703 -0.0000
vn -0.0000 1.0000 -0.0000
vn -0.8215 0.5703 0.0000
vn 0.8666 0.4990 -0.0000
vn -0.8666 0.4990 0.0000
vn 0.8431 0.5378 -0.0000
vn -0.8431 0.5378 0.0000
vn -0.7903 0.6128 0.0000
vn 0.7879 0.6157 -0.0000
vn -0.6702 0.7421 0.0000
vn 0.6609 0.7505 -0.0000
vn -0.4176 0.9086 -0.0000
vn 0.4022 0.9156 -0.0000
vn 0.0506 0.9987 -0.0000
vn 0.0002 -1.0000 0.0000
vn -0.0002 -1.0000 0.0000
vn -0.0473 0.9989 -0.0000
vn -0.7472 0.6646 0.0000
vn -0.7403 0.6723 0.0000
vn -0.4986 0.8668 0.0000
vn -0.8215 0.5702 0.0000
vn -0.0000 0.0000 -1.0000
vn -0.0000 -0.0000 -1.0000
vn -0.6702 0.7421 -0.0000
vn -1.0000 0.0000 0.0000
vn -0.0000 0.0000 1.0000
vn 1.0000 -0.0000 -0.0000
vn 0.0000 -0.0000 -1.0000
# 37 vertex normals

g Arc002
s 1
f 1//1 2//1 3//1 4//1 5//1 6//1 7//1 8//1 9//1 10//1 11//1 12//1 13//1 14//1 15//1 16//1 17//1 18//1 19//1 20//1 21//1 22//1 23//1 24//1 25//1 
s off
f 26//2 27//2 28//2 29//2 
f 30//3 31//3 32//3 33//3 
f 34//4 26//4 29//4 35//4 
f 36//5 37//5 38//5 39//5 
f 40//6 41//6 42//6 43//6 
f 41//7 44//7 45//7 42//7 
f 46//8 34//8 35//8 47//8 
f 44//9 48//9 49//9 45//9 
f 50//10 51//10 52//10 53//10 
f 51//11 54//11 55//11 52//11 
f 54//12 56//12 57//12 55//12 
f 58//13 50//13 53//13 59//13 
f 56//14 60//14 61//14 57//14 
f 62//15 58//15 59//15 63//15 
f 60//16 64//16 65//16 61//16 
f 64//17 66//17 67//17 65//17 
f 68//18 62//18 63//18 69//18 
f 66//19 70//19 71//19 67//19 
f 72//20 68//20 69//20 73//20 
f 70//21 74//21 75//21 71//21 
f 76//22 72//22 73//22 77//22 
f 74//23 46//23 47//23 75//23 
f 31//24 78//24 79//24 32//24 
f 78//25 36//25 39//25 79//25 
f 48//26 76//26 77//26 49//26 
f 80//2 81//2 82//2 83//2 
f 81//3 84//3 85//3 82//3 
f 86//4 80//4 83//4 87//4 
f 88//5 89//5 90//5 91//5 
f 89//27 92//27 93//27 90//27 
f 92//28 94//28 95//28 93//28 
f 96//8 86//8 87//8 97//8 
f 94//29 98//29 99//29 95//29 
f 100//10 101//10 102//10 103//10 
f 101//11 104//11 105//11 102//11 
f 104//30 106//30 107//30 105//30 
f 108//13 100//13 103//13 109//13 
f 106//14 110//14 111//14 107//14 
f 112//15 108//15 109//15 113//15 
f 110//16 114//16 115//16 111//16 
f 114//17 116//17 117//17 115//17 
f 118//18 112//18 113//18 119//18 
f 116//19 120//19 121//19 117//19 
f 122//20 118//20 119//20 123//20 
f 120//21 124//21 125//21 121//21 
f 126//22 122//22 123//22 127//22 
f 124//23 96//23 97//23 125//23 
f 84//24 128//24 129//24 85//24 
f 128//25 88//25 91//25 129//25 
f 98//26 126//26 127//26 99//26 
s 1
f 130//31 131//31 132//31 133//31 
s 2
f 133//32 134//32 135//32 130//32 
s 1
f 134//32 136//32 137//32 135//32 
s 2
f 136//32 138//32 139//32 137//32 
f 131//31 140//31 141//31 132//31 
s 1
f 140//31 142//31 143//31 141//31 
s off
f 33//2 81//2 80//2 144//2 
f 32//3 84//3 81//3 33//3 
f 144//4 80//4 86//4 145//4 
f 38//5 89//5 88//5 39//5 
f 146//27 92//27 89//27 38//27 
f 147//28 94//28 92//28 146//28 
f 145//8 86//8 96//8 148//8 
f 149//9 98//9 94//9 147//9 
f 150//10 101//10 100//10 151//10 
f 152//11 104//11 101//11 150//11 
f 153//12 106//12 104//12 152//12 
f 151//13 100//13 108//13 154//13 
f 155//14 110//14 106//14 153//14 
f 154//15 108//15 112//15 156//15 
f 157//16 114//16 110//16 155//16 
f 158//17 116//17 114//17 157//17 
f 156//18 112//18 118//18 159//18 
f 160//33 120//33 116//33 158//33 
f 159//20 118//20 122//20 161//20 
f 162//21 124//21 120//21 160//21 
f 161//22 122//22 126//22 163//22 
f 148//23 96//23 124//23 162//23 
f 79//24 128//24 84//24 32//24 
f 39//25 88//25 128//25 79//25 
f 163//26 126//26 98//26 149//26 
f 164//2 165//2 166//2 167//2 
f 85//3 3//3 2//3 82//3 
f 167//4 166//4 168//4 169//4 
f 90//5 6//5 5//5 91//5 
f 170//27 171//27 172//27 173//27 
f 174//28 175//28 171//28 170//28 
f 169//8 168//8 176//8 177//8 
f 178//29 179//29 175//29 174//29 
f 180//10 181//10 182//10 183//10 
f 184//11 185//11 181//11 180//11 
f 186//12 187//12 185//12 184//12 
f 183//13 182//13 188//13 189//13 
f 190//14 191//14 187//14 186//14 
f 189//15 188//15 192//15 193//15 
f 194//16 195//16 191//16 190//16 
f 196//17 197//17 195//17 194//17 
f 193//18 192//18 198//18 199//18 
f 200//19 201//19 197//19 196//19 
f 199//20 198//20 202//20 203//20 
f 204//21 205//21 201//21 200//21 
f 203//22 202//22 206//22 207//22 
f 177//23 176//23 205//23 204//23 
f 129//24 4//24 3//24 85//24 
f 91//25 5//25 4//25 129//25 
f 207//26 206//26 179//26 178//26 
f 208//32 30//32 27//32 26//32 
f 30//34 33//34 28//34 27//34 
f 33//1 144//1 29//1 28//1 
f 144//1 145//1 35//1 29//1 
f 145//1 148//1 47//1 35//1 
f 148//1 162//1 75//1 47//1 
f 162//1 160//1 71//1 75//1 
f 160//1 158//1 67//1 71//1 
f 158//1 157//1 65//1 67//1 
f 157//1 155//1 61//1 65//1 
f 155//35 153//35 57//35 61//35 
f 153//1 152//1 55//1 57//1 
f 152//1 150//1 52//1 55//1 
f 150//1 151//1 53//1 52//1 
f 151//1 154//1 59//1 53//1 
f 154//1 156//1 63//1 59//1 
f 156//1 159//1 69//1 63//1 
f 159//1 161//1 73//1 69//1 
f 161//1 163//1 77//1 73//1 
f 163//1 149//1 49//1 77//1 
f 149//35 147//35 45//35 49//35 
f 147//35 146//35 42//35 45//35 
f 146//35 38//35 43//35 42//35 
f 38//36 37//36 40//36 43//36 
f 37//37 209//37 41//37 40//37 
f 209//37 210//37 44//37 41//37 
f 210//37 211//37 48//37 44//37 
f 211//32 138//32 76//32 48//32 
f 138//32 136//32 72//32 76//32 
f 136//32 134//32 68//32 72//32 
f 134//32 133//32 62//32 68//32 
f 133//32 132//32 58//32 62//32 
f 132//32 141//32 50//32 58//32 
f 141//32 143//32 51//32 50//32 
f 143//32 142//32 54//32 51//32 
f 142//32 140//32 56//32 54//32 
f 140//32 131//32 60//32 56//32 
f 131//32 130//32 64//32 60//32 
f 130//32 135//32 66//32 64//32 
f 135//32 137//32 70//32 66//32 
f 137//32 139//32 74//32 70//32 
f 139//32 212//32 46//32 74//32 
f 212//32 213//32 34//32 46//32 
f 213//32 208//32 26//32 34//32 
f 2//1 1//1 166//1 165//1 
f 1//1 25//1 168//1 166//1 
f 25//1 24//1 176//1 168//1 
f 24//1 23//1 205//1 176//1 
f 23//1 22//1 201//1 205//1 
f 22//1 21//1 197//1 201//1 
f 21//1 20//1 195//1 197//1 
f 20//1 19//1 191//1 195//1 
f 19//1 18//1 187//1 191//1 
f 18//1 17//1 185//1 187//1 
f 17//1 16//1 181//1 185//1 
f 16//1 15//1 182//1 181//1 
f 15//1 14//1 188//1 182//1 
f 14//1 13//1 192//1 188//1 
f 13//1 12//1 198//1 192//1 
f 12//1 11//1 202//1 198//1 
f 11//1 10//1 206//1 202//1 
f 10//1 9//1 179//1 206//1 
f 9//1 8//1 175//1 179//1 
f 8//1 7//1 171//1 175//1 
f 7//1 6//1 172//1 171//1 
f 6//36 90//36 173//36 172//36 
f 90//32 93//32 170//32 173//32 
f 93//32 95//32 174//32 170//32 
f 95//32 99//32 178//32 174//32 
f 99//32 127//32 207//32 178//32 
f 127//32 123//32 203//32 207//32 
f 123//32 119//32 199//32 203//32 
f 119//32 113//32 193//32 199//32 
f 113//32 109//32 189//32 193//32 
f 109//32 103//32 183//32 189//32 
f 103//32 102//32 180//32 183//32 
f 102//32 105//32 184//32 180//32 
f 105//32 107//32 186//32 184//32 
f 107//32 111//32 190//32 186//32 
f 111//32 115//32 194//32 190//32 
f 115//32 117//32 196//32 194//32 
f 117//32 121//32 200//32 196//32 
f 121//32 125//32 204//32 200//32 
f 125//32 97//32 177//32 204//32 
f 97//32 87//32 169//32 177//32 
f 87//32 83//32 167//32 169//32 
f 83//32 82//32 164//32 167//32 
f 82//34 2//34 165//34 164//34 
# 195 polygons

#
# object Box001
#

v  -223.8759 -301.4868 18.5854
v  -223.8759 64.6603 18.5855
v  223.8759 64.6603 18.5855
v  223.8759 -301.4868 18.5854
v  223.8759 64.6602 627.7963
v  223.8759 -301.4869 627.7963
v  -223.8759 64.6602 627.7963
v  -223.8759 -301.4869 627.7963
v  -127.7138 20.6985 627.7963
v  100.0657 -47.1467 627.7963
v  -177.0558 20.6985 627.7963
v  -0.0000 -301.4869 608.9266
v  -0.0000 -301.4869 627.7963
v  -84.8064 -301.4869 627.7963
v  -84.8064 -301.4869 608.9266
v  -84.8064 -185.3201 608.9266
v  -84.8064 -185.3201 627.7963
v  -0.0000 -185.3201 608.9266
v  -0.0000 -185.3201 627.7963
v  -177.0558 20.6985 610.7589
v  -127.7138 20.6985 610.7589
v  -177.0558 -47.1467 627.7963
v  -177.0558 -47.1467 610.7589
v  -127.7138 -47.1467 627.7963
v  -127.7138 -47.1467 610.7589
v  100.0657 20.6985 627.7963
v  100.0657 20.6985 610.7589
v  149.4076 20.6985 610.7589
v  149.4076 20.6985 627.7963
v  100.0657 -47.1467 610.7589
v  149.4076 -47.1467 627.7963
v  149.4076 -47.1467 610.7589
# 32 vertices

vn 0.0000 0.0000 -1.0000
vn 1.0000 0.0000 -0.0000
vn 0.0000 1.0000 0.0000
vn -1.0000 0.0000 -0.0000
vn 0.0000 -0.0000 1.0000
vn 0.0000 -1.0000 -0.0000
# 6 vertex normals

vt 447.7518 0.0000 0.0000
vt 447.7518 366.1471 0.0000
vt 0.0000 366.1471 0.0000
vt 0.0000 0.0000 0.0000
vt 366.1471 0.0000 0.0000
vt 366.1471 609.2109 0.0000
vt 0.0000 609.2109 0.0000
vt 447.7518 609.2109 0.0000
vt 96.1621 322.1854 0.0000
vt 323.9416 254.3402 0.0000
vt 46.8202 322.1854 0.0000
vt 223.8759 590.3412 0.0000
vt 223.8759 609.2109 0.0000
vt 18.8697 6.1601 0.0000
vt 0.0000 6.1601 0.0000
vt -0.0000 122.3268 0.0000
vt 18.8696 122.3268 0.0000
vt 0.0000 84.8064 0.0000
vt 116.1667 84.8064 0.0000
vt 116.1667 0.0000 0.0000
vt 3.8276 6.1601 0.0000
vt 3.8276 122.3268 0.0000
vt 22.6973 122.3268 0.0000
vt 22.6973 6.1601 0.0000
vt 22.6973 84.8064 0.0000
vt 22.6973 0.0000 0.0000
vt 3.8276 0.0000 0.0000
vt 3.8276 84.8064 0.0000
vt 2.4937 49.3419 0.0000
vt 19.5312 49.3419 0.0000
vt 19.5312 0.0000 0.0000
vt 2.4937 0.0000 0.0000
vt 17.0375 0.0000 0.0000
vt 0.0000 -0.0000 0.0000
vt 0.0000 67.8451 0.0000
vt 17.0374 67.8451 0.0000
vt 0.0000 49.3419 0.0000
vt 17.0375 49.3419 0.0000
vt 67.8451 49.3419 0.0000
vt 67.8451 0.0000 0.0000
vt 2.4937 67.8451 0.0000
vt 19.5312 67.8451 0.0000
vt 19.5312 -0.0000 0.0000
vt 323.9416 322.1854 0.0000
vt 373.2835 322.1854 0.0000
vt 46.8202 254.3402 0.0000
vt 373.2835 254.3403 0.0000
vt 223.8759 116.1667 0.0000
vt 223.8759 0.0000 0.0000
vt 96.1620 254.3402 0.0000
vt 139.0694 -0.0000 0.0000
vt 139.0695 116.1668 0.0000
vt 139.0695 590.3412 0.0000
vt 139.0695 609.2109 0.0000
# 54 texture coords

g Box001
s 2
f 214/1/38 215/2/38 216/3/38 217/4/38 
s 16
f 217/4/39 216/5/39 218/6/39 219/7/39 
s 32
f 216/4/40 215/1/40 220/8/40 218/7/40 
s 64
f 215/4/41 214/5/41 221/6/41 220/7/41 
s 4
f 222/9/42 223/10/42 220/3/42 224/11/42 
s 8
f 225/12/43 217/1/43 219/8/43 226/13/43 
s 1
f 227/14/39 228/15/39 229/16/39 230/17/39 
s 4
f 231/4/42 229/18/42 228/19/42 225/20/42 
s 2
f 226/21/41 232/22/41 231/23/41 225/24/41 
s 8
f 229/25/43 231/26/43 232/27/43 230/28/43 
s 1
f 224/29/43 233/30/43 234/31/43 222/32/43 
s 2
f 235/33/39 236/34/39 233/35/39 224/36/39 
s 1
f 237/33/40 238/4/40 236/37/40 235/38/40 
s 4
f 236/39/42 238/40/42 234/34/42 233/37/42 
s 2
f 237/32/41 222/41/41 234/42/41 238/43/41 
s 1
f 239/29/43 240/30/43 241/31/43 242/32/43 
s 2
f 223/33/39 243/34/39 240/35/39 239/36/39 
s 1
f 244/33/40 245/4/40 243/37/40 223/38/40 
s 4
f 243/39/42 245/40/42 241/34/42 240/37/42 
s 2
f 244/32/41 242/41/41 241/42/41 245/43/41 
s 4
f 220/3/42 239/44/42 242/45/42 218/2/42 
f 221/4/42 235/46/42 224/11/42 220/3/42 
f 242/45/42 244/47/42 219/1/42 218/2/42 
f 244/47/42 232/48/42 226/49/42 219/1/42 
f 223/10/42 237/50/42 232/48/42 244/47/42 
f 227/51/42 230/52/42 235/46/42 221/4/42 
f 230/52/42 232/48/42 237/50/42 235/46/42 
f 220/3/42 223/10/42 239/44/42 
f 223/10/42 222/9/42 237/50/42 
s 8
f 221/7/43 214/4/43 228/53/43 227/54/43 
f 217/1/43 225/12/43 228/53/43 214/4/43 
# 29 polygons - 2 triangles

