# 3ds Max Wavefront OBJ Exporter v0.97b - (c)2007 guruware
# File Created: 07.08.2018 10:56:02

mtllib open_book.mtl

#
# object Box001
#

v  -19.3109 0.0000 38.1463
v  -19.3109 0.0000 -20.9088
v  24.7836 0.0000 -20.9088
v  24.7836 0.0000 38.1463
v  -19.3109 0.8594 38.1463
v  24.7836 0.8594 38.1463
v  24.7836 0.8594 -20.9088
v  -19.3109 0.8594 -20.9088
# 8 vertices

vn -0.5774 -0.5774 0.5774
vn -0.5774 -0.5774 -0.5774
vn 0.5774 -0.5774 -0.5774
vn 0.5774 -0.5774 0.5774
vn -0.5774 0.5774 0.5774
vn 0.5774 0.5774 0.5774
vn 0.5774 0.5774 -0.5774
vn -0.5774 0.5774 -0.5774
# 8 vertex normals

vt 1.0000 0.0000 0.0000
vt 1.0000 1.0000 0.0000
vt 0.0000 1.0000 0.0000
vt 0.0000 0.0000 0.0000
# 4 texture coords

o Box001
g Box001
usemtl 02___Default
s 2
f 1/1/1 2/2/2 3/3/3 4/4/4 
s 4
f 5/4/5 6/1/6 7/2/7 8/3/8 
s 8
f 1/4/1 4/1/4 6/2/6 5/3/5 
s 16
f 4/4/4 3/1/3 7/2/7 6/3/6 
s 32
f 3/4/3 2/1/2 8/2/8 7/3/7 
s 64
f 2/4/2 1/1/1 5/2/5 8/3/8 
# 6 polygons

#
# object Box002
#

v  -17.0455 0.8702 8.3302
v  -17.0455 0.8702 -18.9038
v  22.1294 0.8702 -18.9038
v  22.1294 0.8702 8.3302
v  -17.0455 4.9504 7.0467
v  22.1294 4.9504 7.0467
v  22.1294 4.9504 -14.3999
v  -17.0455 4.9504 -14.3999
v  22.1294 3.6669 8.3302
v  -17.0455 3.6669 8.3302
v  22.1294 4.4966 8.1423
v  22.1294 4.7625 7.8764
v  -17.0455 4.7625 7.8764
v  -17.0455 4.4966 8.1423
# 14 vertices

vn -0.5774 -0.5774 0.5774
vn 1.0000 0.0000 -0.0000
vn 0.0000 -0.8246 -0.5658
vn 0.5774 -0.5774 0.5774
vn -0.6657 0.7319 0.1456
vn 0.6657 0.7319 0.1456
vn 0.6344 0.7213 -0.2781
vn -0.6344 0.7213 -0.2781
vn 0.6657 0.1456 0.7319
vn -0.6657 0.1456 0.7319
vn 0.0000 0.2312 -0.9729
vn -0.5395 0.4678 -0.7001
vn -0.5395 -0.7001 0.4678
vn 0.5395 -0.7001 0.4678
vn 0.5395 0.4678 -0.7001
# 15 vertex normals

vt 1.0000 0.0000 0.0000
vt 1.0000 1.0000 0.0000
vt 0.0000 1.0000 0.0000
vt 0.0000 0.0000 0.0000
vt 0.0000 0.0471 0.0000
vt 1.0000 0.0471 0.0000
vt 1.0000 0.8346 0.0000
vt 0.0000 0.8346 0.0000
vt 1.0000 0.6854 0.0000
vt 0.0000 0.6854 0.0000
vt 0.8346 1.0000 0.0000
vt 0.0471 1.0000 0.0000
vt 0.0069 0.8888 0.0000
vt 0.0167 0.9539 0.0000
vt 0.9833 0.9539 0.0000
vt 0.9931 0.8888 0.0000
vt 0.9529 1.0000 0.0000
vt 0.1654 1.0000 0.0000
vt 0.0000 0.9509 0.0000
vt 1.0000 0.9509 0.0000
vt -0.0000 0.8854 0.0000
vt -0.0000 0.9457 0.0000
vt 1.0000 0.9457 0.0000
vt 1.0000 0.8854 0.0000
vt -0.0000 1.0010 0.0000
vt 1.0000 1.0010 0.0000
# 26 texture coords

o Box002
g Box002
usemtl 03___Default
s 1
f 9/5/9 10/6/10 11/7/11 12/8/12 
f 13/9/13 14/10/14 15/11/15 16/12/16 
s 2
f 9/8/9 12/5/12 17/13/17 18/14/18 
s 4
f 12/8/12 11/5/11 11/5/19 15/15/15 14/16/14 19/17/20 20/18/21 17/14/17 
s 2
f 11/8/11 10/5/10 10/5/10 11/8/19 
s 4
f 10/8/10 9/5/9 18/13/18 21/19/22 22/20/23 13/21/13 16/22/16 10/8/10 
s 8
f 15/23/15 11/8/19 10/5/10 16/24/16 
f 22/25/23 21/26/22 20/27/21 19/28/20 
s 1
f 13/29/13 22/25/23 19/28/20 14/30/14 
s 2
f 21/26/22 18/14/18 17/13/17 20/27/21 
# 10 polygons

#
# object Box003
#

v  22.1294 0.8702 8.2346
v  22.1294 0.8702 35.4687
v  -17.0455 0.8702 35.4687
v  -17.0455 0.8702 8.2346
v  22.1294 4.9504 9.5181
v  -17.0455 4.9504 9.5181
v  -17.0455 4.9504 30.9648
v  22.1294 4.9504 30.9648
v  -17.0455 3.6669 8.2346
v  22.1294 3.6669 8.2346
v  -17.0455 4.4966 8.4226
v  -17.0455 4.7625 8.6884
v  22.1294 4.7625 8.6884
v  22.1294 4.4966 8.4226
# 14 vertices

vn 0.5774 -0.5774 -0.5774
vn -1.0000 0.0000 -0.0000
vn -0.0000 -0.8246 0.5658
vn -0.5774 -0.5774 -0.5774
vn 0.6657 0.7319 -0.1456
vn -0.6657 0.7319 -0.1456
vn -0.6344 0.7213 0.2781
vn 0.6344 0.7213 0.2781
vn -0.6657 0.1456 -0.7319
vn 0.6657 0.1456 -0.7319
vn -0.0000 0.2312 0.9729
vn 0.5395 0.4678 0.7001
vn 0.5395 -0.7001 -0.4678
vn -0.5395 -0.7001 -0.4678
vn -0.5395 0.4678 0.7001
# 15 vertex normals

vt 1.0000 0.0000 0.0000
vt 1.0000 1.0000 0.0000
vt 0.0000 1.0000 0.0000
vt 0.0000 0.0000 0.0000
vt 0.0000 0.0471 0.0000
vt 1.0000 0.0471 0.0000
vt 1.0000 0.8346 0.0000
vt 0.0000 0.8346 0.0000
vt 1.0000 0.6854 0.0000
vt 0.0000 0.6854 0.0000
vt 0.8346 1.0000 0.0000
vt 0.0471 1.0000 0.0000
vt 0.0069 0.8888 0.0000
vt 0.0167 0.9539 0.0000
vt 0.9833 0.9539 0.0000
vt 0.9931 0.8888 0.0000
vt 0.9529 1.0000 0.0000
vt 0.1654 1.0000 0.0000
vt 0.0000 0.9509 0.0000
vt 1.0000 0.9509 0.0000
vt -0.0000 0.8854 0.0000
vt -0.0000 0.9457 0.0000
vt 1.0000 0.9457 0.0000
vt 1.0000 0.8854 0.0000
vt -0.0000 1.0010 0.0000
vt 1.0000 1.0010 0.0000
# 26 texture coords

o Box003
g Box003
usemtl 03___Default
s 1
f 23/31/24 24/32/25 25/33/26 26/34/27 
f 27/35/28 28/36/29 29/37/30 30/38/31 
s 2
f 23/34/24 26/31/27 31/39/32 32/40/33 
s 4
f 26/34/27 25/31/26 25/31/34 29/41/30 28/42/29 33/43/35 34/44/36 31/40/32 
s 2
f 25/34/26 24/31/25 24/31/25 25/34/34 
s 4
f 24/34/25 23/31/24 32/39/33 35/45/37 36/46/38 27/47/28 30/48/31 24/34/25 
s 8
f 29/49/30 25/34/34 24/31/25 30/50/31 
f 36/51/38 35/52/37 34/53/36 33/54/35 
s 1
f 27/55/28 36/51/38 33/54/35 28/56/29 
s 2
f 35/52/37 32/40/33 31/39/32 34/53/36 
# 10 polygons

#
# object Plane001
#

v  10.7505 5.9587 -12.0144
v  8.2547 5.9587 -12.0144
v  8.2547 5.9587 -7.4006
v  10.7505 5.9587 -7.4006
v  8.2547 5.9587 -2.7868
v  10.7505 5.9587 -2.7868
v  8.2547 5.9587 1.8270
v  10.7505 5.9587 1.8270
v  8.2547 5.9587 6.4408
v  10.7505 5.9587 6.4408
v  13.2463 5.9587 -12.0144
v  13.2463 5.9587 -7.4006
v  13.2463 5.9587 -2.7868
v  13.2463 5.9587 1.8270
v  13.2463 5.9587 6.4408
v  15.7422 5.9587 -12.0144
v  15.7422 5.9587 -7.4006
v  15.7422 5.9587 -2.7868
v  15.7422 5.9587 1.8270
v  15.7422 5.9587 6.4408
v  18.2380 5.9587 -12.0144
v  18.2380 5.9587 -7.4006
v  18.2380 5.9587 -2.7868
v  18.2380 5.9587 1.8270
v  18.2380 5.9587 6.4408
# 25 vertices

vn 0.0000 1.0000 -0.0000
# 1 vertex normals

vt 0.0000 0.2500 0.0000
vt 0.0000 0.0000 0.0000
vt 0.2500 0.0000 0.0000
vt 0.2500 0.2500 0.0000
vt 0.5000 0.0000 0.0000
vt 0.5000 0.2500 0.0000
vt 0.7500 0.0000 0.0000
vt 0.7500 0.2500 0.0000
vt 1.0000 0.0000 0.0000
vt 1.0000 0.2500 0.0000
vt 0.0000 0.5000 0.0000
vt 0.2500 0.5000 0.0000
vt 0.5000 0.5000 0.0000
vt 0.7500 0.5000 0.0000
vt 1.0000 0.5000 0.0000
vt 0.0000 0.7500 0.0000
vt 0.2500 0.7500 0.0000
vt 0.5000 0.7500 0.0000
vt 0.7500 0.7500 0.0000
vt 1.0000 0.7500 0.0000
vt 0.0000 1.0000 0.0000
vt 0.2500 1.0000 0.0000
vt 0.5000 1.0000 0.0000
vt 0.7500 1.0000 0.0000
vt 1.0000 1.0000 0.0000
# 25 texture coords

o Plane001
g Plane001
usemtl 01___Default
s 1
f 37/57/39 38/58/39 39/59/39 40/60/39 
f 40/60/39 39/59/39 41/61/39 42/62/39 
f 42/62/39 41/61/39 43/63/39 44/64/39 
f 44/64/39 43/63/39 45/65/39 46/66/39 
f 47/67/39 37/57/39 40/60/39 48/68/39 
f 48/68/39 40/60/39 42/62/39 49/69/39 
f 49/69/39 42/62/39 44/64/39 50/70/39 
f 50/70/39 44/64/39 46/66/39 51/71/39 
f 52/72/39 47/67/39 48/68/39 53/73/39 
f 53/73/39 48/68/39 49/69/39 54/74/39 
f 54/74/39 49/69/39 50/70/39 55/75/39 
f 55/75/39 50/70/39 51/71/39 56/76/39 
f 57/77/39 52/72/39 53/73/39 58/78/39 
f 58/78/39 53/73/39 54/74/39 59/79/39 
f 59/79/39 54/74/39 55/75/39 60/80/39 
f 60/80/39 55/75/39 56/76/39 61/81/39 
# 16 polygons

#
# object Plane003
#

v  0.8968 5.9587 -12.0144
v  -1.5991 5.9587 -12.0144
v  -1.5991 5.9587 -7.4006
v  0.8968 5.9587 -7.4006
v  -1.5991 5.9587 -2.7868
v  0.8968 5.9587 -2.7868
v  -1.5991 5.9587 1.8270
v  0.8968 5.9587 1.8270
v  -1.5991 5.9587 6.4408
v  0.8968 5.9587 6.4408
v  3.3926 5.9587 -12.0144
v  3.3926 5.9587 -7.4006
v  3.3926 5.9587 -2.7868
v  3.3926 5.9587 1.8270
v  3.3926 5.9587 6.4408
v  5.8884 5.9587 -12.0144
v  5.8884 5.9587 -7.4006
v  5.8884 5.9587 -2.7868
v  5.8884 5.9587 1.8270
v  5.8884 5.9587 6.4408
v  8.3843 5.9587 -12.0144
v  8.3842 5.9587 -7.4006
v  8.3842 5.9587 -2.7868
v  8.3842 5.9587 1.8270
v  8.3842 5.9587 6.4408
# 25 vertices

vn 0.0000 1.0000 -0.0000
# 1 vertex normals

vt 0.0000 0.2500 0.0000
vt 0.0000 0.0000 0.0000
vt 0.2500 0.0000 0.0000
vt 0.2500 0.2500 0.0000
vt 0.5000 0.0000 0.0000
vt 0.5000 0.2500 0.0000
vt 0.7500 0.0000 0.0000
vt 0.7500 0.2500 0.0000
vt 1.0000 0.0000 0.0000
vt 1.0000 0.2500 0.0000
vt 0.0000 0.5000 0.0000
vt 0.2500 0.5000 0.0000
vt 0.5000 0.5000 0.0000
vt 0.7500 0.5000 0.0000
vt 1.0000 0.5000 0.0000
vt 0.0000 0.7500 0.0000
vt 0.2500 0.7500 0.0000
vt 0.5000 0.7500 0.0000
vt 0.7500 0.7500 0.0000
vt 1.0000 0.7500 0.0000
vt 0.0000 1.0000 0.0000
vt 0.2500 1.0000 0.0000
vt 0.5000 1.0000 0.0000
vt 0.7500 1.0000 0.0000
vt 1.0000 1.0000 0.0000
# 25 texture coords

o Plane003
g Plane003
usemtl 01___Default
s 1
f 62/82/40 63/83/40 64/84/40 65/85/40 
f 65/85/40 64/84/40 66/86/40 67/87/40 
f 67/87/40 66/86/40 68/88/40 69/89/40 
f 69/89/40 68/88/40 70/90/40 71/91/40 
f 72/92/40 62/82/40 65/85/40 73/93/40 
f 73/93/40 65/85/40 67/87/40 74/94/40 
f 74/94/40 67/87/40 69/89/40 75/95/40 
f 75/95/40 69/89/40 71/91/40 76/96/40 
f 77/97/40 72/92/40 73/93/40 78/98/40 
f 78/98/40 73/93/40 74/94/40 79/99/40 
f 79/99/40 74/94/40 75/95/40 80/100/40 
f 80/100/40 75/95/40 76/96/40 81/101/40 
f 82/102/40 77/97/40 78/98/40 83/103/40 
f 83/103/40 78/98/40 79/99/40 84/104/40 
f 84/104/40 79/99/40 80/100/40 85/105/40 
f 85/105/40 80/100/40 81/101/40 86/106/40 
# 16 polygons

#
# object Plane004
#

v  -9.0896 5.9587 -12.0144
v  -11.5855 5.9587 -12.0144
v  -11.5855 5.9587 -7.4006
v  -9.0896 5.9587 -7.4006
v  -11.5855 5.9587 -2.7868
v  -9.0896 5.9587 -2.7868
v  -11.5855 5.9587 1.8270
v  -9.0896 5.9587 1.8270
v  -11.5855 5.9587 6.4408
v  -9.0896 5.9587 6.4408
v  -6.5938 5.9587 -12.0144
v  -6.5938 5.9587 -7.4006
v  -6.5938 5.9587 -2.7868
v  -6.5938 5.9587 1.8270
v  -6.5938 5.9587 6.4408
v  -4.0980 5.9587 -12.0144
v  -4.0980 5.9587 -7.4006
v  -4.0980 5.9587 -2.7868
v  -4.0980 5.9587 1.8270
v  -4.0980 5.9587 6.4408
v  -1.6021 5.9587 -12.0144
v  -1.6021 5.9587 -7.4006
v  -1.6021 5.9587 -2.7868
v  -1.6021 5.9587 1.8270
v  -1.6021 5.9587 6.4408
# 25 vertices

vn 0.0000 1.0000 -0.0000
# 1 vertex normals

vt 0.0000 0.2500 0.0000
vt 0.0000 0.0000 0.0000
vt 0.2500 0.0000 0.0000
vt 0.2500 0.2500 0.0000
vt 0.5000 0.0000 0.0000
vt 0.5000 0.2500 0.0000
vt 0.7500 0.0000 0.0000
vt 0.7500 0.2500 0.0000
vt 1.0000 0.0000 0.0000
vt 1.0000 0.2500 0.0000
vt 0.0000 0.5000 0.0000
vt 0.2500 0.5000 0.0000
vt 0.5000 0.5000 0.0000
vt 0.7500 0.5000 0.0000
vt 1.0000 0.5000 0.0000
vt 0.0000 0.7500 0.0000
vt 0.2500 0.7500 0.0000
vt 0.5000 0.7500 0.0000
vt 0.7500 0.7500 0.0000
vt 1.0000 0.7500 0.0000
vt 0.0000 1.0000 0.0000
vt 0.2500 1.0000 0.0000
vt 0.5000 1.0000 0.0000
vt 0.7500 1.0000 0.0000
vt 1.0000 1.0000 0.0000
# 25 texture coords

o Plane004
g Plane004
usemtl 01___Default
s 1
f 87/107/41 88/108/41 89/109/41 90/110/41 
f 90/110/41 89/109/41 91/111/41 92/112/41 
f 92/112/41 91/111/41 93/113/41 94/114/41 
f 94/114/41 93/113/41 95/115/41 96/116/41 
f 97/117/41 87/107/41 90/110/41 98/118/41 
f 98/118/41 90/110/41 92/112/41 99/119/41 
f 99/119/41 92/112/41 94/114/41 100/120/41 
f 100/120/41 94/114/41 96/116/41 101/121/41 
f 102/122/41 97/117/41 98/118/41 103/123/41 
f 103/123/41 98/118/41 99/119/41 104/124/41 
f 104/124/41 99/119/41 100/120/41 105/125/41 
f 105/125/41 100/120/41 101/121/41 106/126/41 
f 107/127/41 102/122/41 103/123/41 108/128/41 
f 108/128/41 103/123/41 104/124/41 109/129/41 
f 109/129/41 104/124/41 105/125/41 110/130/41 
f 110/130/41 105/125/41 106/126/41 111/131/41 
# 16 polygons

#
# object Plane005
#

v  -12.0574 5.9587 -12.0144
v  -14.5532 5.9587 -12.0144
v  -14.5532 5.9587 -7.4006
v  -12.0574 5.9587 -7.4006
v  -14.5532 5.9587 -2.7868
v  -12.0574 5.9587 -2.7868
v  -14.5532 5.9587 1.8270
v  -12.0574 5.9587 1.8270
v  -14.5532 5.9587 6.4408
v  -12.0574 5.9587 6.4408
v  -9.5616 5.9587 -12.0144
v  -9.5616 5.9587 -7.4006
v  -9.5616 5.9587 -2.7868
v  -9.5616 5.9587 1.8270
v  -9.5616 5.9587 6.4408
v  -7.0657 5.9587 -12.0144
v  -7.0657 5.9587 -7.4006
v  -7.0657 5.9587 -2.7868
v  -7.0657 5.9587 1.8270
v  -7.0657 5.9587 6.4408
v  -4.5699 5.9587 -12.0144
v  -4.5699 5.9587 -7.4006
v  -4.5699 5.9587 -2.7868
v  -4.5699 5.9587 1.8270
v  -4.5699 5.9587 6.4408
# 25 vertices

vn 0.0000 1.0000 -0.0000
# 1 vertex normals

vt 0.0000 0.2500 0.0000
vt 0.0000 0.0000 0.0000
vt 0.2500 0.0000 0.0000
vt 0.2500 0.2500 0.0000
vt 0.5000 0.0000 0.0000
vt 0.5000 0.2500 0.0000
vt 0.7500 0.0000 0.0000
vt 0.7500 0.2500 0.0000
vt 1.0000 0.0000 0.0000
vt 1.0000 0.2500 0.0000
vt 0.0000 0.5000 0.0000
vt 0.2500 0.5000 0.0000
vt 0.5000 0.5000 0.0000
vt 0.7500 0.5000 0.0000
vt 1.0000 0.5000 0.0000
vt 0.0000 0.7500 0.0000
vt 0.2500 0.7500 0.0000
vt 0.5000 0.7500 0.0000
vt 0.7500 0.7500 0.0000
vt 1.0000 0.7500 0.0000
vt 0.0000 1.0000 0.0000
vt 0.2500 1.0000 0.0000
vt 0.5000 1.0000 0.0000
vt 0.7500 1.0000 0.0000
vt 1.0000 1.0000 0.0000
# 25 texture coords

o Plane005
g Plane005
usemtl 01___Default
s 1
f 112/132/42 113/133/42 114/134/42 115/135/42 
f 115/135/42 114/134/42 116/136/42 117/137/42 
f 117/137/42 116/136/42 118/138/42 119/139/42 
f 119/139/42 118/138/42 120/140/42 121/141/42 
f 122/142/42 112/132/42 115/135/42 123/143/42 
f 123/143/42 115/135/42 117/137/42 124/144/42 
f 124/144/42 117/137/42 119/139/42 125/145/42 
f 125/145/42 119/139/42 121/141/42 126/146/42 
f 127/147/42 122/142/42 123/143/42 128/148/42 
f 128/148/42 123/143/42 124/144/42 129/149/42 
f 129/149/42 124/144/42 125/145/42 130/150/42 
f 130/150/42 125/145/42 126/146/42 131/151/42 
f 132/152/42 127/147/42 128/148/42 133/153/42 
f 133/153/42 128/148/42 129/149/42 134/154/42 
f 134/154/42 129/149/42 130/150/42 135/155/42 
f 135/155/42 130/150/42 131/151/42 136/156/42 
# 16 polygons

#
# object Plane006
#

v  10.7505 5.9587 10.4628
v  8.2547 5.9587 10.4628
v  8.2547 5.9587 15.0766
v  10.7505 5.9587 15.0766
v  8.2547 5.9587 19.6904
v  10.7505 5.9587 19.6904
v  8.2547 5.9587 24.3042
v  10.7505 5.9587 24.3042
v  8.2547 5.9587 28.9180
v  10.7505 5.9587 28.9180
v  13.2463 5.9587 10.4628
v  13.2463 5.9587 15.0766
v  13.2463 5.9587 19.6904
v  13.2463 5.9587 24.3042
v  13.2463 5.9587 28.9180
v  15.7422 5.9587 10.4628
v  15.7422 5.9587 15.0766
v  15.7422 5.9587 19.6904
v  15.7422 5.9587 24.3042
v  15.7422 5.9587 28.9180
v  18.2380 5.9587 10.4628
v  18.2380 5.9587 15.0766
v  18.2380 5.9587 19.6904
v  18.2380 5.9587 24.3042
v  18.2380 5.9587 28.9180
# 25 vertices

vn 0.0000 1.0000 -0.0000
# 1 vertex normals

vt 0.0000 0.2500 0.0000
vt 0.0000 0.0000 0.0000
vt 0.2500 0.0000 0.0000
vt 0.2500 0.2500 0.0000
vt 0.5000 0.0000 0.0000
vt 0.5000 0.2500 0.0000
vt 0.7500 0.0000 0.0000
vt 0.7500 0.2500 0.0000
vt 1.0000 0.0000 0.0000
vt 1.0000 0.2500 0.0000
vt 0.0000 0.5000 0.0000
vt 0.2500 0.5000 0.0000
vt 0.5000 0.5000 0.0000
vt 0.7500 0.5000 0.0000
vt 1.0000 0.5000 0.0000
vt 0.0000 0.7500 0.0000
vt 0.2500 0.7500 0.0000
vt 0.5000 0.7500 0.0000
vt 0.7500 0.7500 0.0000
vt 1.0000 0.7500 0.0000
vt 0.0000 1.0000 0.0000
vt 0.2500 1.0000 0.0000
vt 0.5000 1.0000 0.0000
vt 0.7500 1.0000 0.0000
vt 1.0000 1.0000 0.0000
# 25 texture coords

o Plane006
g Plane006
usemtl 01___Default
s 1
f 137/157/43 138/158/43 139/159/43 140/160/43 
f 140/160/43 139/159/43 141/161/43 142/162/43 
f 142/162/43 141/161/43 143/163/43 144/164/43 
f 144/164/43 143/163/43 145/165/43 146/166/43 
f 147/167/43 137/157/43 140/160/43 148/168/43 
f 148/168/43 140/160/43 142/162/43 149/169/43 
f 149/169/43 142/162/43 144/164/43 150/170/43 
f 150/170/43 144/164/43 146/166/43 151/171/43 
f 152/172/43 147/167/43 148/168/43 153/173/43 
f 153/173/43 148/168/43 149/169/43 154/174/43 
f 154/174/43 149/169/43 150/170/43 155/175/43 
f 155/175/43 150/170/43 151/171/43 156/176/43 
f 157/177/43 152/172/43 153/173/43 158/178/43 
f 158/178/43 153/173/43 154/174/43 159/179/43 
f 159/179/43 154/174/43 155/175/43 160/180/43 
f 160/180/43 155/175/43 156/176/43 161/181/43 
# 16 polygons

#
# object Plane007
#

v  0.8968 5.9587 10.4628
v  -1.5991 5.9587 10.4628
v  -1.5991 5.9587 15.0766
v  0.8968 5.9587 15.0766
v  -1.5991 5.9587 19.6904
v  0.8968 5.9587 19.6904
v  -1.5991 5.9587 24.3042
v  0.8968 5.9587 24.3042
v  -1.5991 5.9587 28.9180
v  0.8968 5.9587 28.9180
v  3.3926 5.9587 10.4628
v  3.3926 5.9587 15.0766
v  3.3926 5.9587 19.6904
v  3.3926 5.9587 24.3042
v  3.3926 5.9587 28.9180
v  5.8884 5.9587 10.4628
v  5.8884 5.9587 15.0766
v  5.8884 5.9587 19.6904
v  5.8884 5.9587 24.3042
v  5.8884 5.9587 28.9180
v  8.3843 5.9587 10.4628
v  8.3842 5.9587 15.0766
v  8.3842 5.9587 19.6904
v  8.3842 5.9587 24.3042
v  8.3842 5.9587 28.9180
# 25 vertices

vn 0.0000 1.0000 -0.0000
# 1 vertex normals

vt 0.0000 0.2500 0.0000
vt 0.0000 0.0000 0.0000
vt 0.2500 0.0000 0.0000
vt 0.2500 0.2500 0.0000
vt 0.5000 0.0000 0.0000
vt 0.5000 0.2500 0.0000
vt 0.7500 0.0000 0.0000
vt 0.7500 0.2500 0.0000
vt 1.0000 0.0000 0.0000
vt 1.0000 0.2500 0.0000
vt 0.0000 0.5000 0.0000
vt 0.2500 0.5000 0.0000
vt 0.5000 0.5000 0.0000
vt 0.7500 0.5000 0.0000
vt 1.0000 0.5000 0.0000
vt 0.0000 0.7500 0.0000
vt 0.2500 0.7500 0.0000
vt 0.5000 0.7500 0.0000
vt 0.7500 0.7500 0.0000
vt 1.0000 0.7500 0.0000
vt 0.0000 1.0000 0.0000
vt 0.2500 1.0000 0.0000
vt 0.5000 1.0000 0.0000
vt 0.7500 1.0000 0.0000
vt 1.0000 1.0000 0.0000
# 25 texture coords

o Plane007
g Plane007
usemtl 01___Default
s 1
f 162/182/44 163/183/44 164/184/44 165/185/44 
f 165/185/44 164/184/44 166/186/44 167/187/44 
f 167/187/44 166/186/44 168/188/44 169/189/44 
f 169/189/44 168/188/44 170/190/44 171/191/44 
f 172/192/44 162/182/44 165/185/44 173/193/44 
f 173/193/44 165/185/44 167/187/44 174/194/44 
f 174/194/44 167/187/44 169/189/44 175/195/44 
f 175/195/44 169/189/44 171/191/44 176/196/44 
f 177/197/44 172/192/44 173/193/44 178/198/44 
f 178/198/44 173/193/44 174/194/44 179/199/44 
f 179/199/44 174/194/44 175/195/44 180/200/44 
f 180/200/44 175/195/44 176/196/44 181/201/44 
f 182/202/44 177/197/44 178/198/44 183/203/44 
f 183/203/44 178/198/44 179/199/44 184/204/44 
f 184/204/44 179/199/44 180/200/44 185/205/44 
f 185/205/44 180/200/44 181/201/44 186/206/44 
# 16 polygons

#
# object Plane008
#

v  -9.0896 5.9587 10.4628
v  -11.5855 5.9587 10.4628
v  -11.5855 5.9587 15.0766
v  -9.0896 5.9587 15.0766
v  -11.5855 5.9587 19.6904
v  -9.0896 5.9587 19.6904
v  -11.5855 5.9587 24.3042
v  -9.0896 5.9587 24.3042
v  -11.5855 5.9587 28.9180
v  -9.0896 5.9587 28.9180
v  -6.5938 5.9587 10.4628
v  -6.5938 5.9587 15.0766
v  -6.5938 5.9587 19.6904
v  -6.5938 5.9587 24.3042
v  -6.5938 5.9587 28.9180
v  -4.0980 5.9587 10.4628
v  -4.0980 5.9587 15.0766
v  -4.0980 5.9587 19.6904
v  -4.0980 5.9587 24.3042
v  -4.0980 5.9587 28.9180
v  -1.6021 5.9587 10.4628
v  -1.6021 5.9587 15.0766
v  -1.6021 5.9587 19.6904
v  -1.6021 5.9587 24.3042
v  -1.6021 5.9587 28.9180
# 25 vertices

vn 0.0000 1.0000 -0.0000
# 1 vertex normals

vt 0.0000 0.2500 0.0000
vt 0.0000 0.0000 0.0000
vt 0.2500 0.0000 0.0000
vt 0.2500 0.2500 0.0000
vt 0.5000 0.0000 0.0000
vt 0.5000 0.2500 0.0000
vt 0.7500 0.0000 0.0000
vt 0.7500 0.2500 0.0000
vt 1.0000 0.0000 0.0000
vt 1.0000 0.2500 0.0000
vt 0.0000 0.5000 0.0000
vt 0.2500 0.5000 0.0000
vt 0.5000 0.5000 0.0000
vt 0.7500 0.5000 0.0000
vt 1.0000 0.5000 0.0000
vt 0.0000 0.7500 0.0000
vt 0.2500 0.7500 0.0000
vt 0.5000 0.7500 0.0000
vt 0.7500 0.7500 0.0000
vt 1.0000 0.7500 0.0000
vt 0.0000 1.0000 0.0000
vt 0.2500 1.0000 0.0000
vt 0.5000 1.0000 0.0000
vt 0.7500 1.0000 0.0000
vt 1.0000 1.0000 0.0000
# 25 texture coords

o Plane008
g Plane008
usemtl 01___Default
s 1
f 187/207/45 188/208/45 189/209/45 190/210/45 
f 190/210/45 189/209/45 191/211/45 192/212/45 
f 192/212/45 191/211/45 193/213/45 194/214/45 
f 194/214/45 193/213/45 195/215/45 196/216/45 
f 197/217/45 187/207/45 190/210/45 198/218/45 
f 198/218/45 190/210/45 192/212/45 199/219/45 
f 199/219/45 192/212/45 194/214/45 200/220/45 
f 200/220/45 194/214/45 196/216/45 201/221/45 
f 202/222/45 197/217/45 198/218/45 203/223/45 
f 203/223/45 198/218/45 199/219/45 204/224/45 
f 204/224/45 199/219/45 200/220/45 205/225/45 
f 205/225/45 200/220/45 201/221/45 206/226/45 
f 207/227/45 202/222/45 203/223/45 208/228/45 
f 208/228/45 203/223/45 204/224/45 209/229/45 
f 209/229/45 204/224/45 205/225/45 210/230/45 
f 210/230/45 205/225/45 206/226/45 211/231/45 
# 16 polygons

#
# object Plane009
#

v  -12.0574 5.9587 10.4628
v  -14.5532 5.9587 10.4628
v  -14.5532 5.9587 15.0766
v  -12.0574 5.9587 15.0766
v  -14.5532 5.9587 19.6904
v  -12.0574 5.9587 19.6904
v  -14.5532 5.9587 24.3042
v  -12.0574 5.9587 24.3042
v  -14.5532 5.9587 28.9180
v  -12.0574 5.9587 28.9180
v  -9.5616 5.9587 10.4628
v  -9.5616 5.9587 15.0766
v  -9.5616 5.9587 19.6904
v  -9.5616 5.9587 24.3042
v  -9.5616 5.9587 28.9180
v  -7.0657 5.9587 10.4628
v  -7.0657 5.9587 15.0766
v  -7.0657 5.9587 19.6904
v  -7.0657 5.9587 24.3042
v  -7.0657 5.9587 28.9180
v  -4.5699 5.9587 10.4628
v  -4.5699 5.9587 15.0766
v  -4.5699 5.9587 19.6904
v  -4.5699 5.9587 24.3042
v  -4.5699 5.9587 28.9180
# 25 vertices

vn 0.0000 1.0000 -0.0000
# 1 vertex normals

vt 0.0000 0.2500 0.0000
vt 0.0000 0.0000 0.0000
vt 0.2500 0.0000 0.0000
vt 0.2500 0.2500 0.0000
vt 0.5000 0.0000 0.0000
vt 0.5000 0.2500 0.0000
vt 0.7500 0.0000 0.0000
vt 0.7500 0.2500 0.0000
vt 1.0000 0.0000 0.0000
vt 1.0000 0.2500 0.0000
vt 0.0000 0.5000 0.0000
vt 0.2500 0.5000 0.0000
vt 0.5000 0.5000 0.0000
vt 0.7500 0.5000 0.0000
vt 1.0000 0.5000 0.0000
vt 0.0000 0.7500 0.0000
vt 0.2500 0.7500 0.0000
vt 0.5000 0.7500 0.0000
vt 0.7500 0.7500 0.0000
vt 1.0000 0.7500 0.0000
vt 0.0000 1.0000 0.0000
vt 0.2500 1.0000 0.0000
vt 0.5000 1.0000 0.0000
vt 0.7500 1.0000 0.0000
vt 1.0000 1.0000 0.0000
# 25 texture coords

o Plane009
g Plane009
usemtl 01___Default
s 1
f 212/232/46 213/233/46 214/234/46 215/235/46 
f 215/235/46 214/234/46 216/236/46 217/237/46 
f 217/237/46 216/236/46 218/238/46 219/239/46 
f 219/239/46 218/238/46 220/240/46 221/241/46 
f 222/242/46 212/232/46 215/235/46 223/243/46 
f 223/243/46 215/235/46 217/237/46 224/244/46 
f 224/244/46 217/237/46 219/239/46 225/245/46 
f 225/245/46 219/239/46 221/241/46 226/246/46 
f 227/247/46 222/242/46 223/243/46 228/248/46 
f 228/248/46 223/243/46 224/244/46 229/249/46 
f 229/249/46 224/244/46 225/245/46 230/250/46 
f 230/250/46 225/245/46 226/246/46 231/251/46 
f 232/252/46 227/247/46 228/248/46 233/253/46 
f 233/253/46 228/248/46 229/249/46 234/254/46 
f 234/254/46 229/249/46 230/250/46 235/255/46 
f 235/255/46 230/250/46 231/251/46 236/256/46 
# 16 polygons

