# 3ds Max Wavefront OBJ Exporter v0.97b - (c)2007 guruware
# File Created: 19.11.2016 19:02:53

#
# object Box002
#

v  -10.8268 0.0000 -8.8583
v  -10.8268 0.0000 -10.8268
v  -8.8583 0.0000 -10.8268
v  -8.8583 0.0000 -8.8583
v  -10.8268 15.7480 -8.8583
v  -8.8583 15.7480 -8.8583
v  -8.8583 15.7480 -10.8268
v  -10.8268 15.7480 -10.8268
# 8 vertices

vn 0.0000 -1.0000 -0.0000
vn 0.0000 1.0000 -0.0000
vn 0.0000 0.0000 1.0000
vn 1.0000 0.0000 -0.0000
vn 0.0000 0.0000 -1.0000
vn -1.0000 0.0000 -0.0000
# 6 vertex normals

vt 1.9685 0.0000 0.0000
vt 1.9685 1.9685 0.0000
vt 0.0000 1.9685 0.0000
vt 0.0000 0.0000 0.0000
vt 1.9685 15.7480 0.0000
vt 0.0000 15.7480 0.0000
# 6 texture coords

g Box002
s 2
f 1/1/1 2/2/1 3/3/1 4/4/1 
s 4
f 5/4/2 6/1/2 7/2/2 8/3/2 
s 8
f 1/4/3 4/1/3 6/5/3 5/6/3 
s 16
f 4/4/4 3/1/4 7/5/4 6/6/4 
s 32
f 3/4/5 2/1/5 8/5/5 7/6/5 
s 64
f 2/4/6 1/1/6 5/5/6 8/6/6 
# 6 polygons

#
# object Box003
#

v  -10.8268 0.0000 10.8268
v  -10.8268 0.0000 8.8583
v  -8.8583 0.0000 8.8583
v  -8.8583 0.0000 10.8268
v  -10.8268 15.7480 10.8268
v  -8.8583 15.7480 10.8268
v  -8.8583 15.7480 8.8583
v  -10.8268 15.7480 8.8583
# 8 vertices

vn 0.0000 -1.0000 -0.0000
vn 0.0000 1.0000 -0.0000
vn 0.0000 0.0000 1.0000
vn 1.0000 0.0000 -0.0000
vn 0.0000 0.0000 -1.0000
vn -1.0000 0.0000 -0.0000
# 6 vertex normals

vt 1.9685 0.0000 0.0000
vt 1.9685 1.9685 0.0000
vt 0.0000 1.9685 0.0000
vt 0.0000 0.0000 0.0000
vt 1.9685 15.7480 0.0000
vt 0.0000 15.7480 0.0000
# 6 texture coords

g Box003
s 2
f 9/7/7 10/8/7 11/9/7 12/10/7 
s 4
f 13/10/8 14/7/8 15/8/8 16/9/8 
s 8
f 9/10/9 12/7/9 14/11/9 13/12/9 
s 16
f 12/10/10 11/7/10 15/11/10 14/12/10 
s 32
f 11/10/11 10/7/11 16/11/11 15/12/11 
s 64
f 10/10/12 9/7/12 13/11/12 16/12/12 
# 6 polygons

#
# object Box004
#

v  8.8583 0.0000 10.8268
v  8.8583 0.0000 8.8583
v  10.8268 0.0000 8.8583
v  10.8268 0.0000 10.8268
v  8.8583 15.7480 10.8268
v  10.8268 15.7480 10.8268
v  10.8268 15.7480 8.8583
v  8.8583 15.7480 8.8583
# 8 vertices

vn 0.0000 -1.0000 -0.0000
vn 0.0000 1.0000 -0.0000
vn 0.0000 0.0000 1.0000
vn 1.0000 0.0000 -0.0000
vn 0.0000 0.0000 -1.0000
vn -1.0000 0.0000 -0.0000
# 6 vertex normals

vt 1.9685 0.0000 0.0000
vt 1.9685 1.9685 0.0000
vt 0.0000 1.9685 0.0000
vt 0.0000 0.0000 0.0000
vt 1.9685 15.7480 0.0000
vt 0.0000 15.7480 0.0000
# 6 texture coords

g Box004
s 2
f 17/13/13 18/14/13 19/15/13 20/16/13 
s 4
f 21/16/14 22/13/14 23/14/14 24/15/14 
s 8
f 17/16/15 20/13/15 22/17/15 21/18/15 
s 16
f 20/16/16 19/13/16 23/17/16 22/18/16 
s 32
f 19/16/17 18/13/17 24/17/17 23/18/17 
s 64
f 18/16/18 17/13/18 21/17/18 24/18/18 
# 6 polygons

#
# object Box005
#

v  8.8583 0.0000 -8.8583
v  8.8583 0.0000 -10.8268
v  10.8268 0.0000 -10.8268
v  10.8268 0.0000 -8.8583
v  8.8583 15.7480 -8.8583
v  10.8268 15.7480 -8.8583
v  10.8268 15.7480 -10.8268
v  8.8583 15.7480 -10.8268
# 8 vertices

vn 0.0000 -1.0000 -0.0000
vn 0.0000 1.0000 -0.0000
vn 0.0000 0.0000 1.0000
vn 1.0000 0.0000 -0.0000
vn 0.0000 0.0000 -1.0000
vn -1.0000 0.0000 -0.0000
# 6 vertex normals

vt 1.9685 0.0000 0.0000
vt 1.9685 1.9685 0.0000
vt 0.0000 1.9685 0.0000
vt 0.0000 0.0000 0.0000
vt 1.9685 15.7480 0.0000
vt 0.0000 15.7480 0.0000
# 6 texture coords

g Box005
s 2
f 25/19/19 26/20/19 27/21/19 28/22/19 
s 4
f 29/22/20 30/19/20 31/20/20 32/21/20 
s 8
f 25/22/21 28/19/21 30/23/21 29/24/21 
s 16
f 28/22/22 27/19/22 31/23/22 30/24/22 
s 32
f 27/22/23 26/19/23 32/23/23 31/24/23 
s 64
f 26/22/24 25/19/24 29/23/24 32/24/24 
# 6 polygons

#
# object Box006
#

v  -10.8268 15.7480 10.8268
v  -10.8268 15.7480 -10.8268
v  10.8268 15.7480 -10.8268
v  10.8268 15.7480 10.8268
v  -10.8268 17.7165 10.8268
v  10.8268 17.7165 10.8268
v  10.8268 17.7165 -10.8268
v  -10.8268 17.7165 -10.8268
# 8 vertices

vn 0.0000 -1.0000 -0.0000
vn 0.0000 1.0000 -0.0000
vn 0.0000 0.0000 1.0000
vn 1.0000 0.0000 -0.0000
vn 0.0000 0.0000 -1.0000
vn -1.0000 0.0000 -0.0000
# 6 vertex normals

vt 21.6535 0.0000 0.0000
vt 21.6535 21.6535 0.0000
vt 0.0000 21.6535 0.0000
vt 0.0000 0.0000 0.0000
vt 21.6535 1.9685 0.0000
vt 0.0000 1.9685 0.0000
# 6 texture coords

g Box006
s 2
f 33/25/25 34/26/25 35/27/25 36/28/25 
s 4
f 37/28/26 38/25/26 39/26/26 40/27/26 
s 8
f 33/28/27 36/25/27 38/29/27 37/30/27 
s 16
f 36/28/28 35/25/28 39/29/28 38/30/28 
s 32
f 35/28/29 34/25/29 40/29/29 39/30/29 
s 64
f 34/28/30 33/25/30 37/29/30 40/30/30 
# 6 polygons

